<svg width="48" height="48" viewBox="0 0 48 48" fill="none" xmlns="http://www.w3.org/2000/svg">
<path d="M29.8829 25.4307H15.588L18.9602 21.6839H31.7522L32.2653 22.2659L29.8829 25.4307Z" fill="#1E130F"/>
<path d="M10.6032 31.1419L1.62311 41H27.881C30.602 41 37.1769 41 41.392 36.8167C45.6145 32.6261 46.8778 27.5163 47 25.4307H35.6741C35.332 26.3765 34.4719 28.5591 33.7681 29.7232C33.0644 30.8872 31.8377 31.154 31.3124 31.1419H10.6032Z" fill="#1E130F"/>
<path d="M17.0175 15.7909L1 6.07824C1 6.07824 15.3195 6.00549 24.4948 6.00549C32.0821 6.00549 37.3968 5.6781 41.9785 10.0797C44.6467 12.6431 46.6701 16.9549 47 18.5919H35.6741C35.1976 17.7188 34.2835 17.0056 33.4749 16.5184C32.4486 15.9 31.4345 15.7787 30.9092 15.7909H17.0175Z" fill="#1E130F"/>
</svg>
