<svg width="318" height="106" viewBox="0 0 318 106" fill="none" xmlns="http://www.w3.org/2000/svg">
<g clip-path="url(#clip0_0_312)">
<path d="M298.123 91.5839C295.014 91.5839 292.504 89.0725 292.504 85.9832V72.793C292.504 69.7038 295.015 67.1924 298.123 67.1924C301.231 67.1924 303.741 69.7038 303.741 72.793V85.9832C303.741 89.0725 301.231 91.5839 298.123 91.5839Z" fill="#1E130F" stroke="#E27055" stroke-width="2"/>
<path d="M311.382 98.1845H284.869C281.769 98.1845 279.25 95.6721 279.25 92.5838C279.25 89.4955 281.769 86.9832 284.869 86.9832H311.382C314.481 86.9832 317 89.4955 317 92.5838C317 95.6721 314.481 98.1845 311.382 98.1845Z" fill="#1E130F" stroke="#E27055" stroke-width="2"/>
<path d="M245.118 40.8076C245.808 40.8076 262.441 40.8463 279.355 44.2094C289.655 46.2643 297.9 49.1429 303.92 52.7363C314.813 59.2387 317 67.2671 317 72.7905C317 75.8788 314.481 78.3911 311.381 78.3911H245.118C242.019 78.3911 239.5 75.8788 239.5 72.7905V46.3984C239.5 43.3125 242.017 40.8076 245.118 40.8076Z" fill="#1E130F" stroke="#E27055" stroke-width="2"/>
<path d="M42.0547 96.1622L42.0582 96.1663C43.1238 97.4452 44.7052 98.184 46.3755 98.184H192.134C193.342 98.184 194.521 97.7913 195.506 97.0577L222.007 77.2681C224.485 75.4157 224.988 71.9076 223.127 69.4308C223.127 69.4307 223.127 69.4306 223.127 69.4305L223.926 68.8298C223.361 68.0781 223.173 63.4529 224.022 63.0485L244.497 53.297C244.907 53.1018 245.357 53.0117 245.809 52.9654C249.153 52.6228 251.758 49.8125 251.758 46.3998C251.758 42.7562 248.789 39.8091 245.12 39.8091H178.793C173.403 39.8091 170.707 39.8091 168.533 39.0766C164.386 37.6799 161.131 34.4247 159.734 30.2781C159.002 28.1036 159.002 25.4083 159.002 20.0176C159.002 16.374 156.037 13.417 152.378 13.417C84.4027 13.417 51.5916 41.5582 50.2283 42.7569L42.0547 96.1622ZM42.0547 96.1622C40.986 94.8937 40.5415 93.2155 40.8418 91.5752C40.8419 91.575 40.8419 91.5749 40.8419 91.5748L49.0813 46.6973C49.0813 46.6972 49.0814 46.6971 49.0814 46.697C49.3074 45.4706 49.9445 44.3462 50.8902 43.5064L42.0547 96.1622Z" fill="#1E130F" stroke="#E27055" stroke-width="2"/>
<path d="M40.7489 96.0645C40.8355 95.988 41.0343 95.8459 41.3366 95.8413C41.5098 95.8386 41.6538 95.881 41.7685 95.9388C41.7782 95.9044 41.7879 95.8691 41.7978 95.8329C41.4996 95.4196 41.2624 94.9706 41.0895 94.4993C41.0504 94.6784 41.0123 94.8467 40.9752 95.0038C40.8687 95.4556 40.7781 95.7821 40.7062 95.9955C40.7203 96.0185 40.7345 96.0415 40.7489 96.0645ZM40.8418 91.5752C40.8419 91.5751 40.8419 91.5749 40.8419 91.5748L39.8583 91.3946L40.8418 91.5752ZM46.58 60.3212L47.6105 54.7082C47.4402 55.5438 47.2646 56.4629 47.0849 57.448C46.9203 58.3506 46.7517 59.3125 46.58 60.3212ZM49.0813 46.6973C49.0813 46.6972 49.0814 46.6971 49.0814 46.697L48.0979 46.5161L49.0813 46.6973ZM50.0295 49.1227L50.0029 49.1252L50.0972 50.1207V49.1207C50.0742 49.1207 50.0517 49.1214 50.0295 49.1227ZM50.8886 43.5079C50.8891 43.5074 50.8896 43.5069 50.8902 43.5064C50.8908 43.5059 50.8914 43.5054 50.8919 43.5049L50.2283 42.7569L50.8886 43.5079Z" fill="#1E130F" stroke="#E27055" stroke-width="2"/>
<path d="M62.7424 22.5276L62.7405 22.5299L25.1458 67.0807L25.1447 67.0821C24.122 68.2984 22.6079 69 21.0067 69H7.39868C4.41183 69 2 66.5909 2 63.6328V6.35767C2 3.40154 4.40987 1 7.39868 1H58.6013C61.5901 1 64 3.40207 64 6.35767V19.0921C64 20.3484 63.5532 21.5726 62.7424 22.5276Z" fill="#1E130F" stroke="#E27055" stroke-width="2"/>
<path d="M14.2542 72.7911C14.2542 55.159 28.66 40.8076 46.3759 40.8076C64.0968 40.8076 78.5025 55.1597 78.5025 72.7911C78.5025 90.4212 64.0969 104.773 46.3759 104.773C28.6599 104.773 14.2542 90.4212 14.2542 72.7911Z" fill="#1E130F" stroke="#E27055" stroke-width="2"/>
<path d="M50.3539 76.7534C48.1578 78.9351 44.5915 78.9351 42.3954 76.7533C40.2016 74.5638 40.2015 71.0243 42.3953 68.8348C44.5914 66.6528 48.1579 66.6527 50.354 68.8347C52.5479 71.0242 52.5479 74.5639 50.3539 76.7534Z" fill="#1E130F" stroke="#E27055" stroke-width="2"/>
<path d="M181.196 43.1265V95.8649C181.196 97.1456 180.158 98.1838 178.877 98.1838C177.597 98.1838 176.559 97.1456 176.559 95.8649V43.1265C176.559 41.8458 177.597 40.8076 178.877 40.8076C180.158 40.8076 181.196 41.8458 181.196 43.1265Z" fill="#1E130F" stroke="#E27055" stroke-width="2"/>
<path d="M145.749 78.3927H105.998C102.889 78.3927 100.375 75.8804 100.375 72.7921C100.375 69.7037 102.889 67.1914 105.998 67.1914H145.749C148.859 67.1914 151.376 69.7046 151.376 72.7921C151.376 75.8795 148.859 78.3927 145.749 78.3927Z" fill="#1E130F" stroke="#E27055" stroke-width="2"/>
<path d="M213.004 72.7911C213.004 55.1587 227.402 40.8076 245.117 40.8076C262.842 40.8076 277.248 55.1598 277.248 72.7911C277.248 90.421 262.842 104.773 245.117 104.773C227.401 104.773 213.004 90.4216 213.004 72.7911Z" fill="#1E130F" stroke="#E27055" stroke-width="2"/>
<path d="M249.111 76.7532C246.909 78.9361 243.338 78.9339 241.148 76.7539C238.958 74.5642 238.958 71.0236 241.148 68.834C243.338 66.654 246.909 66.6518 249.111 68.8347C251.299 71.0242 251.299 74.5637 249.111 76.7532Z" fill="#1E130F" stroke="#E27055" stroke-width="2"/>
</g>
<defs>
<clipPath id="clip0_0_312">
<rect width="318" height="106" fill="white"/>
</clipPath>
</defs>
</svg>
