<svg width="24" height="24" viewBox="0 0 24 24" fill="none" xmlns="http://www.w3.org/2000/svg">
<g opacity="0.5">
<mask id="path-1-inside-1_0_68" fill="white">
<path fill-rule="evenodd" clip-rule="evenodd" d="M4.41382 17.859C4.77164 17.6504 5.23086 17.7713 5.43952 18.1291C6.26638 19.5471 7.53048 20.6193 9.08935 21.3151C9.4676 21.4839 9.63738 21.9274 9.46856 22.3057C9.29974 22.6839 8.85626 22.8537 8.47801 22.6849C6.6665 21.8764 5.14669 20.6046 4.14374 18.8847C3.93508 18.5269 4.056 18.0677 4.41382 17.859Z"/>
</mask>
<path d="M4.41382 17.859L3.40654 16.1312L3.40618 16.1314L4.41382 17.859ZM5.43952 18.1291L7.16724 17.1216L7.16719 17.1216L5.43952 18.1291ZM9.08935 21.3151L8.27417 23.1414L8.27429 23.1415L9.08935 21.3151ZM9.46856 22.3057L11.2949 23.1209L11.2949 23.1207L9.46856 22.3057ZM8.47801 22.6849L7.66288 24.5113L7.66295 24.5113L8.47801 22.6849ZM4.14374 18.8847L5.87144 17.8772L5.87141 17.8772L4.14374 18.8847ZM5.4211 19.5868C4.82491 19.9344 4.05966 19.7331 3.71184 19.1366L7.16719 17.1216C6.40206 15.8096 4.71836 15.3664 3.40654 16.1312L5.4211 19.5868ZM3.7118 19.1366C4.77339 20.9571 6.37839 22.2953 8.27417 23.1414L9.90453 19.4888C8.68257 18.9434 7.75936 18.1371 7.16724 17.1216L3.7118 19.1366ZM8.27429 23.1415C7.64367 22.8601 7.36094 22.1209 7.64217 21.4907L11.2949 23.1207C11.9138 21.734 11.2915 20.1077 9.9044 19.4887L8.27429 23.1415ZM7.64225 21.4905C7.92361 20.8602 8.66264 20.5772 9.29306 20.8585L7.66295 24.5113C9.04988 25.1302 10.6759 24.5076 11.2949 23.1209L7.64225 21.4905ZM9.29313 20.8585C7.81838 20.2003 6.63956 19.1944 5.87144 17.8772L2.41604 19.8922C3.65382 22.0148 5.51462 23.5525 7.66288 24.5113L9.29313 20.8585ZM5.87141 17.8772C6.21929 18.4737 6.01754 19.239 5.42146 19.5866L3.40618 16.1314C2.09446 16.8965 1.65086 18.5801 2.41606 19.8922L5.87141 17.8772Z" fill="#E27055" mask="url(#path-1-inside-1_0_68)"/>
<mask id="path-3-inside-2_0_68" fill="white">
<path fill-rule="evenodd" clip-rule="evenodd" d="M18.9059 3.92194C17.892 2.88646 16.446 2.50452 15.0304 2.9073C14.632 3.02066 14.2172 2.78959 14.1038 2.39119C13.9905 1.99279 14.2215 1.57792 14.6199 1.46456C16.5581 0.913074 18.5746 1.43959 19.9776 2.8725C20.2674 3.16846 20.2624 3.64331 19.9665 3.9331C19.6705 4.2229 19.1957 4.2179 18.9059 3.92194Z"/>
</mask>
<path d="M18.9059 3.92194L17.4768 5.32119L17.4769 5.32121L18.9059 3.92194ZM15.0304 2.9073L14.483 0.983653L14.483 0.983657L15.0304 2.9073ZM14.1038 2.39119L12.18 2.93827L12.1802 2.93872L14.1038 2.39119ZM14.6199 1.46456L14.0725 -0.459083L14.0725 -0.459082L14.6199 1.46456ZM19.9776 2.8725L18.5485 4.27172L18.5486 4.27177L19.9776 2.8725ZM19.9665 3.9331L21.3656 5.3622L21.3658 5.36199L19.9665 3.9331ZM20.3349 2.5227C18.8022 0.957421 16.5956 0.382554 14.483 0.983653L15.5777 4.83095C16.2963 4.62649 16.9817 4.8155 17.4768 5.32119L20.3349 2.5227ZM14.483 0.983657C15.1472 0.794669 15.8385 1.18003 16.0274 1.84366L12.1802 2.93872C12.5959 4.39916 14.1167 5.24665 15.5777 4.83095L14.483 0.983657ZM16.0275 1.84411C16.2162 2.50761 15.8315 3.19918 15.1672 3.38821L14.0725 -0.459082C12.6114 -0.0433352 11.7647 1.47797 12.18 2.93827L16.0275 1.84411ZM15.1672 3.38821C16.4087 3.03495 17.6645 3.36888 18.5485 4.27172L21.4066 1.47328C19.4846 -0.489692 16.7074 -1.2088 14.0725 -0.459083L15.1672 3.38821ZM18.5486 4.27177C18.0656 3.77852 18.0739 2.9872 18.5671 2.50421L21.3658 5.36199C22.4508 4.29942 22.4691 2.5584 21.4066 1.47324L18.5486 4.27177ZM18.5673 2.504C19.0605 2.02117 19.8518 2.02939 20.3349 2.52268L17.4769 5.32121C18.5395 6.40641 20.2805 6.42464 21.3656 5.3622L18.5673 2.504Z" fill="#E27055" mask="url(#path-3-inside-2_0_68)"/>
<path d="M9.55259 10.029L9.55255 10.0289L6.23422 4.33848C6.2257 4.33855 6.21548 4.33928 6.20355 4.34121C6.17524 4.34577 6.13121 4.35802 6.0735 4.391C6.01557 4.42411 5.9846 4.45467 5.96895 4.4736C5.9683 4.47439 5.96766 4.47518 5.96704 4.47595L9.69757 10.8732C9.69757 10.8732 9.69758 10.8733 9.69758 10.8733C10.1844 11.708 9.90242 12.7796 9.06747 13.2665C8.23255 13.7535 7.16099 13.4714 6.6741 12.6364L9.55259 10.029ZM9.55259 10.029C10.0394 10.8637 11.1109 11.1461 11.9459 10.6591L9.55259 10.029ZM12.576 8.26578L12.5761 8.26589C13.0628 9.1007 12.7808 10.1721 11.9459 10.659L12.576 8.26578ZM12.576 8.26578L10.1083 4.03402M12.576 8.26578L10.1083 4.03402M16.9159 11.6685L16.9158 11.6685C15.7554 12.3317 15.6031 13.4567 15.9435 14.0406L15.9436 14.0406C16.4303 14.8754 16.1485 15.9469 15.3134 16.4338L16.9159 11.6685ZM16.9159 11.6685C17.3211 11.4368 17.6169 11.053 17.7378 10.6022L16.9159 11.6685ZM12.9201 15.8038L12.92 15.8037C11.749 13.7955 12.2628 11.4454 13.6701 9.85535L14.3996 10.501L13.6701 9.85534C13.7161 9.80338 13.7389 9.74719 13.7452 9.70816C13.7481 9.69036 13.7469 9.68038 13.7464 9.6776C13.7464 9.67743 13.7464 9.67728 13.7464 9.67715L10.3755 3.89655C10.367 3.89662 10.3568 3.89736 10.3448 3.89928C10.3165 3.90384 10.2725 3.9161 10.2148 3.94907L12.9201 15.8038ZM12.9201 15.8038C13.407 16.6385 14.4783 16.9208 15.3132 16.434L12.9201 15.8038ZM10.1083 4.03402C10.1089 4.03325 10.1096 4.03247 10.1102 4.03167C10.1259 4.01275 10.1568 3.98219 10.2147 3.94909L10.1083 4.03402ZM15.9334 6.47948L17.5591 9.26746C17.5591 9.2675 17.5591 9.26754 17.5592 9.26758C17.7942 9.67063 17.8587 10.151 17.7378 10.6021L15.9334 6.47948ZM15.9334 6.47948C15.934 6.47871 15.9346 6.47793 15.9353 6.47713C15.9509 6.45821 15.9819 6.42766 16.0398 6.39456L15.9334 6.47948ZM5.03955 9.83338L6.67405 12.6363L16.0398 6.39453C16.0975 6.36157 16.1415 6.34932 16.1699 6.34476C16.1818 6.34283 16.192 6.34209 16.2006 6.34203L18.6769 10.5887L19.5408 10.085L18.6769 10.5888C19.9447 12.7628 19.0768 16.0265 16.0891 17.7339L16.0891 17.7339C13.0958 19.4447 9.77922 18.5568 8.50291 16.3682L4.77238 9.97083C4.77299 9.97007 4.77362 9.96929 4.77427 9.96851C4.78992 9.94958 4.82089 9.91902 4.87883 9.8859C4.93654 9.85292 4.98057 9.84067 5.00888 9.83611C5.02081 9.83418 5.03103 9.83345 5.03955 9.83338ZM10.3262 3.81204L10.3262 3.81215L10.3262 3.81204ZM13.7469 9.67814L14.6108 9.17439L13.7469 9.67813L13.7469 9.67814Z" stroke="#E27055" stroke-width="2"/>
</g>
</svg>
