<svg width="24" height="24" viewBox="0 0 24 24" fill="none" xmlns="http://www.w3.org/2000/svg">
<mask id="path-1-inside-1_0_139" fill="white">
<path fill-rule="evenodd" clip-rule="evenodd" d="M4.41382 17.859C4.77164 17.6504 5.23086 17.7713 5.43952 18.1291C6.26638 19.5471 7.53048 20.6193 9.08935 21.3151C9.4676 21.4839 9.63738 21.9274 9.46856 22.3057C9.29974 22.6839 8.85626 22.8537 8.47801 22.6849C6.6665 21.8764 5.14669 20.6046 4.14374 18.8847C3.93508 18.5269 4.056 18.0677 4.41382 17.859Z"/>
</mask>
<path d="M4.41382 17.859L3.40654 16.1312L3.40618 16.1314L4.41382 17.859ZM5.43952 18.1291L7.16724 17.1216L7.16719 17.1216L5.43952 18.1291ZM9.08935 21.3151L8.27417 23.1414L8.27429 23.1415L9.08935 21.3151ZM9.46856 22.3057L11.2949 23.1209L11.2949 23.1207L9.46856 22.3057ZM8.47801 22.6849L7.66288 24.5113L7.66295 24.5113L8.47801 22.6849ZM4.14374 18.8847L5.87144 17.8772L5.87141 17.8772L4.14374 18.8847ZM5.4211 19.5868C4.82491 19.9344 4.05966 19.7331 3.71184 19.1366L7.16719 17.1216C6.40206 15.8096 4.71836 15.3664 3.40654 16.1312L5.4211 19.5868ZM3.7118 19.1366C4.77339 20.9571 6.37839 22.2953 8.27417 23.1414L9.90453 19.4888C8.68257 18.9434 7.75936 18.1371 7.16724 17.1216L3.7118 19.1366ZM8.27429 23.1415C7.64367 22.8601 7.36094 22.1209 7.64217 21.4907L11.2949 23.1207C11.9138 21.734 11.2915 20.1077 9.9044 19.4887L8.27429 23.1415ZM7.64225 21.4905C7.92361 20.8602 8.66264 20.5772 9.29306 20.8585L7.66295 24.5113C9.04988 25.1302 10.6759 24.5076 11.2949 23.1209L7.64225 21.4905ZM9.29313 20.8585C7.81838 20.2003 6.63956 19.1944 5.87144 17.8772L2.41604 19.8922C3.65382 22.0148 5.51462 23.5525 7.66288 24.5113L9.29313 20.8585ZM5.87141 17.8772C6.21929 18.4737 6.01754 19.239 5.42146 19.5866L3.40618 16.1314C2.09446 16.8965 1.65086 18.5801 2.41606 19.8922L5.87141 17.8772Z" fill="#E27055" mask="url(#path-1-inside-1_0_139)"/>
<mask id="path-3-inside-2_0_139" fill="white">
<path fill-rule="evenodd" clip-rule="evenodd" d="M18.9059 3.92194C17.892 2.88646 16.446 2.50452 15.0304 2.9073C14.632 3.02066 14.2172 2.78959 14.1038 2.39119C13.9905 1.99279 14.2215 1.57792 14.6199 1.46456C16.5581 0.913074 18.5746 1.43959 19.9776 2.8725C20.2674 3.16846 20.2624 3.64331 19.9665 3.9331C19.6705 4.2229 19.1957 4.2179 18.9059 3.92194Z"/>
</mask>
<path d="M18.9059 3.92194L17.4768 5.32119L17.4769 5.32121L18.9059 3.92194ZM15.0304 2.9073L14.483 0.983653L14.483 0.983657L15.0304 2.9073ZM14.1038 2.39119L12.18 2.93827L12.1802 2.93872L14.1038 2.39119ZM14.6199 1.46456L14.0725 -0.459083L14.0725 -0.459082L14.6199 1.46456ZM19.9776 2.8725L18.5485 4.27172L18.5486 4.27177L19.9776 2.8725ZM19.9665 3.9331L21.3656 5.3622L21.3658 5.36199L19.9665 3.9331ZM20.3349 2.5227C18.8022 0.957421 16.5956 0.382554 14.483 0.983653L15.5777 4.83095C16.2963 4.62649 16.9817 4.8155 17.4768 5.32119L20.3349 2.5227ZM14.483 0.983657C15.1472 0.794669 15.8385 1.18003 16.0274 1.84366L12.1802 2.93872C12.5959 4.39916 14.1167 5.24665 15.5777 4.83095L14.483 0.983657ZM16.0275 1.84411C16.2162 2.50761 15.8315 3.19918 15.1672 3.38821L14.0725 -0.459082C12.6114 -0.0433352 11.7647 1.47797 12.18 2.93827L16.0275 1.84411ZM15.1672 3.38821C16.4087 3.03495 17.6645 3.36888 18.5485 4.27172L21.4066 1.47328C19.4846 -0.489692 16.7074 -1.2088 14.0725 -0.459083L15.1672 3.38821ZM18.5486 4.27177C18.0656 3.77852 18.0739 2.9872 18.5671 2.50421L21.3658 5.36199C22.4508 4.29942 22.4691 2.5584 21.4066 1.47324L18.5486 4.27177ZM18.5673 2.504C19.0605 2.02117 19.8518 2.02939 20.3349 2.52268L17.4769 5.32121C18.5395 6.40641 20.2805 6.42464 21.3656 5.3622L18.5673 2.504Z" fill="#E27055" mask="url(#path-3-inside-2_0_139)"/>
<path fill-rule="evenodd" clip-rule="evenodd" d="M11.1901 3.3084C10.9761 2.94132 10.3523 2.71871 9.71858 3.08086C9.08722 3.44169 8.97618 4.07773 9.18651 4.43841L11.7122 8.76953C11.9208 9.12735 11.7999 9.58657 11.4421 9.79523C11.0843 10.0039 10.6251 9.88297 10.4164 9.52515L7.04885 3.75033C6.83479 3.38325 6.21098 3.16064 5.57731 3.52279C4.94595 3.88362 4.83491 4.51966 5.04525 4.88034L8.83373 11.377C9.04239 11.7348 8.92147 12.1941 8.56365 12.4027C8.20583 12.6114 7.74661 12.4905 7.53795 12.1326L5.85418 9.24523C5.64012 8.87815 5.01631 8.65554 4.38264 9.01769C3.75128 9.37852 3.64024 10.0145 3.85058 10.3752L7.63906 16.8719C9.248 19.631 13.2184 20.5264 16.5853 18.6021C19.95 16.6792 21.146 12.8377 19.5408 10.085L17.0152 5.75388C16.8011 5.3868 16.1773 5.16419 15.5436 5.52634C14.9123 5.88717 14.8012 6.52321 15.0116 6.8839L16.6953 9.77131C16.7961 9.94412 16.8237 10.15 16.7719 10.3432C16.7201 10.5365 16.5933 10.701 16.4196 10.8003C14.8771 11.6818 14.4044 13.3863 15.0797 14.5443C15.2884 14.9022 15.1675 15.3614 14.8096 15.57C14.4518 15.7787 13.9926 15.6578 13.7839 15.3C12.8712 13.7348 13.24 11.8501 14.4189 10.5181C14.7485 10.1457 14.8613 9.60397 14.6108 9.17439L11.1901 3.3084Z" fill="#E27055"/>
</svg>
