<svg width="24" height="24" viewBox="0 0 24 24" fill="none" xmlns="http://www.w3.org/2000/svg">
<g opacity="0.5">
<path d="M11.3099 19.4863L11.3099 19.4863C12.2205 17.5188 12.7571 14.8711 12.7571 12C12.7571 9.12894 12.2205 6.48118 11.3099 4.51373L11.3099 4.51372C10.9612 3.76042 10.5115 3.06776 9.9947 2.5H16.3714C17.3377 2.5 18.3703 3.36689 19.1905 5.13895C19.9913 6.86904 20.5 9.29427 20.5 12C20.5 14.7057 19.9913 17.1309 19.1905 18.861C18.3703 20.6331 17.3377 21.5 16.3714 21.5H9.99469C10.5115 20.9322 10.9612 20.2396 11.3099 19.4863Z" stroke="#E27055"/>
<path d="M9.14495 12.766L9.1615 12.25H8.64521H7.62857C7.4653 12.25 7.35714 12.1249 7.35714 12C7.35714 11.8751 7.4653 11.75 7.62857 11.75H8.64521H9.1615L9.14495 11.234C9.09664 9.7274 8.90712 8.37089 8.61953 7.37622C8.47675 6.88242 8.30174 6.44904 8.08882 6.12784C7.88931 5.82687 7.57057 5.5 7.11429 5.5C6.62225 5.5 6.28951 5.87784 6.0865 6.21177C5.86548 6.5753 5.6843 7.06807 5.53908 7.63284C5.24669 8.76991 5.07143 10.3137 5.07143 12C5.07143 13.6863 5.24669 15.2301 5.53908 16.3672C5.6843 16.9319 5.86548 17.4247 6.0865 17.7882C6.28951 18.1222 6.62225 18.5 7.11429 18.5C7.57058 18.5 7.88931 18.1731 8.08882 17.8722C8.30174 17.551 8.47675 17.1176 8.61953 16.6238C8.90712 15.6291 9.09664 14.2726 9.14495 12.766ZM9.46444 5.34413L9.91819 5.13411L9.46444 5.34413C10.229 6.996 10.7286 9.34825 10.7286 12C10.7286 14.6518 10.229 17.004 9.46444 18.6559C8.65957 20.3947 7.75335 21 7.11429 21C6.47522 21 5.569 20.3947 4.76413 18.6559C3.99956 17.004 3.5 14.6518 3.5 12C3.5 9.34824 3.99955 6.996 4.76413 5.34413C5.569 3.60523 6.47522 3 7.11429 3C7.75335 3 8.65957 3.60523 9.46444 5.34413Z" stroke="#E27055"/>
</g>
</svg>
