<svg width="635" height="379" viewBox="0 0 635 379" fill="none" xmlns="http://www.w3.org/2000/svg">
<path opacity="0.5" d="M76.2754 235.779L76.2486 235.841L76.2302 235.905C74.603 241.638 74.6165 248.448 75.4106 255.166C76.2064 261.898 77.796 268.614 79.38 274.195C85.9138 297.216 114.159 308.352 136.693 297.767C156.182 288.613 172.081 277.022 180.611 263.296C189.193 249.487 190.256 233.603 180.225 216.167C176.04 208.892 167.712 205.605 157.816 204.868C147.895 204.13 136.158 205.928 124.757 209.078C113.346 212.232 102.202 216.759 93.4517 221.531C89.0769 223.917 85.28 226.375 82.3404 228.767C79.4239 231.14 77.2585 233.522 76.2754 235.779ZM557.021 235.905L557.003 235.841L556.976 235.779C555.993 233.522 553.827 231.14 550.911 228.767C547.971 226.375 544.174 223.917 539.8 221.531C531.049 216.759 519.906 212.232 508.495 209.078C497.093 205.928 485.356 204.13 475.436 204.868C465.539 205.605 457.211 208.892 453.027 216.167C442.996 233.603 444.058 249.487 452.64 263.296C461.17 277.022 477.07 288.613 496.558 297.767C519.093 308.352 547.338 297.216 553.871 274.195C555.455 268.614 557.045 261.898 557.841 255.166C558.635 248.448 558.648 241.638 557.021 235.905ZM52.8961 36.46C55.0323 34.58 59.3576 32.6807 65.6611 30.835C71.9151 29.004 79.9631 27.2668 89.4001 25.6354C108.271 22.3732 132.612 19.5475 159.087 17.2301C212.034 12.5955 273.437 10.0002 316.513 10C359.573 9.9998 422.978 14.0665 477.685 20.3533C505.039 23.4967 530.196 27.1927 549.537 31.2078C559.21 33.2158 567.405 35.299 573.683 37.4254C576.823 38.4886 579.465 39.5566 581.565 40.6227C583.678 41.695 585.183 42.7359 586.101 43.7216C601.767 60.5417 641.871 108.699 632.635 203.287C623.379 298.083 590.225 349.752 569.602 368.086C564.577 372.553 556.957 375.608 548.094 377.051C539.247 378.491 529.25 378.31 519.557 376.385C500.119 372.523 482.214 361.733 476.953 343.333C476.199 340.695 473.519 338.35 469.786 336.237C465.991 334.089 460.854 332.041 454.77 330.112C442.592 326.25 426.458 322.809 409.284 319.992C374.976 314.366 336.335 311.201 316.513 312.188C296.691 311.201 258.509 314.366 224.66 319.993C207.715 322.809 191.81 326.25 179.804 330.113C173.805 332.043 168.739 334.091 164.995 336.24C161.309 338.355 158.665 340.7 157.912 343.333C152.651 361.733 134.746 372.523 115.309 376.385C105.615 378.31 95.6178 378.491 86.7708 377.051C77.9083 375.608 70.288 372.553 65.2635 368.086C44.6401 349.752 11.486 298.083 2.22978 203.287C-7.00825 108.678 38.365 49.248 52.8961 36.46ZM78.848 93.7919C74.894 105.575 71.4711 127.156 71.4695 137.76C71.469 140.798 71.8681 147.324 77.9683 151.968C84.0257 156.579 95.4167 159.108 116.769 155.022C138.08 150.944 157.759 144.619 171.336 134.396C178.138 129.275 183.434 123.156 186.618 115.831C189.805 108.501 190.851 100.024 189.248 90.238C188.024 82.7641 182.051 78.3094 173.904 75.9034C165.752 73.4964 155.165 73.045 144.129 73.7252C122.048 75.086 97.7888 81.0053 86.7422 85.3822C82.8466 86.9257 80.1117 90.0262 78.848 93.7919ZM561.782 137.76C561.78 127.156 558.357 105.575 554.403 93.7919C553.14 90.0262 550.405 86.9257 546.509 85.3822C535.462 81.0053 511.204 75.086 489.122 73.7252C478.086 73.045 467.499 73.4964 459.348 75.9034C451.2 78.3094 445.227 82.7641 444.003 90.238C442.401 100.024 443.446 108.501 446.633 115.831C449.818 123.156 455.113 129.275 461.915 134.396C475.492 144.619 495.171 150.944 516.482 155.022C537.835 159.108 549.226 156.579 555.283 151.968C561.383 147.324 561.782 140.798 561.782 137.76Z" fill="#E27055" stroke="#E27055" stroke-width="2"/>
<path d="M76.2754 226.779L76.2486 226.841L76.2302 226.905C74.603 232.638 74.6165 239.448 75.4106 246.166C76.2064 252.898 77.796 259.614 79.38 265.195C85.9138 288.216 114.159 299.352 136.693 288.767C156.182 279.613 172.081 268.022 180.611 254.296C189.193 240.487 190.256 224.603 180.225 207.167C176.04 199.892 167.712 196.605 157.816 195.868C147.895 195.13 136.158 196.928 124.757 200.078C113.346 203.232 102.202 207.759 93.4517 212.531C89.0769 214.917 85.28 217.375 82.3404 219.767C79.4239 222.14 77.2585 224.522 76.2754 226.779ZM557.021 226.905L557.003 226.841L556.976 226.779C555.993 224.522 553.827 222.14 550.911 219.767C547.971 217.375 544.174 214.917 539.8 212.531C531.049 207.759 519.906 203.232 508.495 200.078C497.093 196.928 485.356 195.13 475.436 195.868C465.539 196.605 457.211 199.892 453.027 207.167C442.996 224.603 444.058 240.487 452.64 254.296C461.17 268.022 477.07 279.613 496.558 288.767C519.093 299.352 547.338 288.216 553.871 265.195C555.455 259.614 557.045 252.898 557.841 246.166C558.635 239.448 558.648 232.638 557.021 226.905ZM52.8961 27.46C55.0323 25.58 59.3576 23.6807 65.6611 21.835C71.9151 20.004 79.9631 18.2668 89.4001 16.6354C108.271 13.3732 132.612 10.5475 159.087 8.2301C212.034 3.59552 273.437 1.0002 316.513 1C359.573 0.999804 422.978 5.0665 477.685 11.3533C505.039 14.4967 530.196 18.1927 549.537 22.2078C559.21 24.2158 567.405 26.299 573.683 28.4254C576.823 29.4886 579.465 30.5566 581.565 31.6227C583.678 32.695 585.183 33.7359 586.101 34.7216C601.767 51.5417 641.871 99.6986 632.635 194.287C623.379 289.083 590.225 340.752 569.602 359.086C564.577 363.553 556.957 366.608 548.094 368.051C539.247 369.491 529.25 369.31 519.557 367.385C500.119 363.523 482.214 352.733 476.953 334.333C476.199 331.695 473.519 329.35 469.786 327.237C465.991 325.089 460.854 323.041 454.77 321.112C442.592 317.25 426.458 313.809 409.284 310.992C374.976 305.366 336.335 302.201 316.513 303.188C296.691 302.201 258.509 305.366 224.66 310.993C207.715 313.809 191.81 317.25 179.804 321.113C173.805 323.043 168.739 325.091 164.995 327.24C161.309 329.355 158.665 331.7 157.912 334.333C152.651 352.733 134.746 363.523 115.309 367.385C105.615 369.31 95.6178 369.491 86.7708 368.051C77.9083 366.608 70.288 363.553 65.2635 359.086C44.6401 340.752 11.486 289.083 2.22978 194.287C-7.00825 99.6778 38.365 40.248 52.8961 27.46ZM78.848 84.7919C74.894 96.5746 71.4711 118.156 71.4695 128.76C71.469 131.798 71.8681 138.324 77.9683 142.968C84.0257 147.579 95.4167 150.108 116.769 146.022C138.08 141.944 157.759 135.619 171.336 125.396C178.138 120.275 183.434 114.156 186.618 106.831C189.805 99.5006 190.851 91.0245 189.248 81.238C188.024 73.7641 182.051 69.3094 173.904 66.9034C165.752 64.4964 155.165 64.045 144.129 64.7252C122.048 66.086 97.7888 72.0053 86.7422 76.3822C82.8466 77.9257 80.1117 81.0262 78.848 84.7919ZM561.782 128.76C561.78 118.156 558.357 96.5746 554.403 84.7919C553.14 81.0262 550.405 77.9257 546.509 76.3822C535.462 72.0053 511.204 66.086 489.122 64.7252C478.086 64.045 467.499 64.4964 459.348 66.9034C451.2 69.3094 445.227 73.7641 444.003 81.238C442.401 91.0245 443.446 99.5006 446.633 106.831C449.818 114.156 455.113 120.275 461.915 125.396C475.492 135.619 495.171 141.944 516.482 146.022C537.835 150.108 549.226 147.579 555.283 142.968C561.383 138.324 561.782 131.798 561.782 128.76Z" fill="#1E130F" stroke="#E27055" stroke-width="2"/>
<g opacity="0.5">
<circle opacity="0.5" cx="273" cy="272" r="12" fill="#E27055"/>
<ellipse opacity="0.5" cx="273" cy="271" rx="12" ry="11" fill="#E27055"/>
<circle opacity="0.5" cx="242.5" cy="283.5" r="5.5" fill="#E27055"/>
<ellipse opacity="0.5" cx="242.5" cy="283" rx="5.5" ry="5" fill="#0A0A0A"/>
<circle opacity="0.5" cx="204.5" cy="240.5" r="8.5" fill="#E27055"/>
<ellipse opacity="0.5" cx="204.5" cy="240" rx="8.5" ry="8" fill="#0A0A0A"/>
<circle opacity="0.5" cx="154" cy="163" r="12" fill="#E27055"/>
<ellipse opacity="0.5" cx="154" cy="162" rx="12" ry="11" fill="#0A0A0A"/>
<circle opacity="0.5" cx="203" cy="159" r="12" fill="#E27055"/>
<ellipse opacity="0.5" cx="203" cy="158" rx="12" ry="11" fill="#E27055"/>
<circle opacity="0.5" cx="204.5" cy="30.5" r="5.5" fill="#E27055"/>
<ellipse opacity="0.5" cx="204.5" cy="30" rx="5.5" ry="5" fill="#0A0A0A"/>
<circle opacity="0.5" cx="164.5" cy="35.5" r="10.5" fill="#E27055"/>
<ellipse opacity="0.5" cx="164.5" cy="35" rx="10.5" ry="10" fill="#E27055"/>
<circle opacity="0.5" cx="121.5" cy="41.5" r="10.5" fill="#E27055"/>
<ellipse opacity="0.5" cx="121.5" cy="41" rx="10.5" ry="10" fill="#0A0A0A"/>
</g>
<g opacity="0.5">
<circle opacity="0.5" cx="12" cy="12" r="12" transform="matrix(-1 0 0 1 373 260)" fill="#E27055"/>
<ellipse opacity="0.5" cx="12" cy="11" rx="12" ry="11" transform="matrix(-1 0 0 1 373 260)" fill="#E27055"/>
<circle opacity="0.5" cx="5.5" cy="5.5" r="5.5" transform="matrix(-1 0 0 1 397 278)" fill="#E27055"/>
<ellipse opacity="0.5" cx="5.5" cy="5" rx="5.5" ry="5" transform="matrix(-1 0 0 1 397 278)" fill="#0A0A0A"/>
<circle opacity="0.5" cx="8.5" cy="8.5" r="8.5" transform="matrix(-1 0 0 1 438 232)" fill="#E27055"/>
<ellipse opacity="0.5" cx="8.5" cy="8" rx="8.5" ry="8" transform="matrix(-1 0 0 1 438 232)" fill="#0A0A0A"/>
<circle opacity="0.5" cx="12" cy="12" r="12" transform="matrix(-1 0 0 1 492 151)" fill="#E27055"/>
<ellipse opacity="0.5" cx="12" cy="11" rx="12" ry="11" transform="matrix(-1 0 0 1 492 151)" fill="#0A0A0A"/>
<circle opacity="0.5" cx="12" cy="12" r="12" transform="matrix(-1 0 0 1 443 147)" fill="#E27055"/>
<ellipse opacity="0.5" cx="12" cy="11" rx="12" ry="11" transform="matrix(-1 0 0 1 443 147)" fill="#E27055"/>
<circle opacity="0.5" cx="5.5" cy="5.5" r="5.5" transform="matrix(-1 0 0 1 435 25)" fill="#E27055"/>
<ellipse opacity="0.5" cx="5.5" cy="5" rx="5.5" ry="5" transform="matrix(-1 0 0 1 435 25)" fill="#0A0A0A"/>
<circle opacity="0.5" cx="10.5" cy="10.5" r="10.5" transform="matrix(-1 0 0 1 480 25)" fill="#E27055"/>
<ellipse opacity="0.5" cx="10.5" cy="10" rx="10.5" ry="10" transform="matrix(-1 0 0 1 480 25)" fill="#E27055"/>
<circle opacity="0.5" cx="10.5" cy="10.5" r="10.5" transform="matrix(-1 0 0 1 523 31)" fill="#E27055"/>
<ellipse opacity="0.5" cx="10.5" cy="10" rx="10.5" ry="10" transform="matrix(-1 0 0 1 523 31)" fill="#0A0A0A"/>
</g>
<g opacity="0.5">
<rect x="205" y="55" width="224" height="75" rx="10" fill="#673629"/>
</g>
</svg>
