<svg width="156" height="33" viewBox="0 0 156 33" fill="none" xmlns="http://www.w3.org/2000/svg">
<path d="M0 33V0H9.2672C11.4477 0 13.3405 0.421918 14.9456 1.26575C16.5507 2.07945 17.7924 3.23973 18.6707 4.74658C19.5792 6.25342 20.0335 8.03151 20.0335 10.0808V22.874C20.0335 24.8932 19.5792 26.6712 18.6707 28.2082C17.7924 29.7452 16.5507 30.9356 14.9456 31.7795C13.3405 32.5932 11.4477 33 9.2672 33H0ZM4.90617 28.5699H9.2672C11.0843 28.5699 12.5077 28.0726 13.5374 27.0781C14.5974 26.0534 15.1273 24.6521 15.1273 22.874V10.0808C15.1273 8.33288 14.5974 6.96164 13.5374 5.96712C12.5077 4.94246 11.0843 4.43014 9.2672 4.43014H4.90617V28.5699Z" fill="#E27055"/>
<path d="M27.2842 33V0H37.687C39.7767 0 41.5938 0.406849 43.1383 1.22055C44.6829 2.00411 45.8791 3.11918 46.7271 4.56575C47.6054 6.01233 48.0445 7.71507 48.0445 9.67397C48.0445 11.874 47.4691 13.7877 46.3183 15.4151C45.1977 17.0123 43.6683 18.1425 41.7301 18.8055L48.4988 33H42.9112L36.8693 19.4384H32.1903V33H27.2842ZM32.1903 15.1438H37.687C39.3224 15.1438 40.6247 14.6616 41.5938 13.6973C42.5629 12.7027 43.0475 11.3918 43.0475 9.76439C43.0475 8.07671 42.5629 6.75068 41.5938 5.7863C40.6247 4.82192 39.3224 4.33973 37.687 4.33973H32.1903V15.1438Z" fill="#E27055"/>
<path d="M55.1589 33V28.6603H61.8367V4.33973H55.1589V0H73.5116V4.33973H66.8337V28.6603H73.5116V33H55.1589Z" fill="#E27055"/>
<path d="M88.3032 33L79.8991 0H84.9415L90.2565 21.9699C90.5897 23.2658 90.8774 24.5616 91.1197 25.8575C91.3922 27.1233 91.5891 28.1178 91.7102 28.8411C91.8314 28.1178 91.9979 27.1233 92.2099 25.8575C92.4522 24.5616 92.7399 23.2507 93.073 21.9247L98.3426 0H103.249L94.7993 33H88.3032Z" fill="#E27055"/>
<path d="M109.455 33V0H128.943V4.33973H114.27V13.6973H127.353V17.9918H114.27V28.6603H128.943V33H109.455Z" fill="#E27055"/>
<path d="M136.103 33V0H142.281L151.957 27.4397C151.896 26.5658 151.821 25.526 151.73 24.3205C151.639 23.1151 151.563 21.8644 151.503 20.5685C151.472 19.2726 151.457 18.0973 151.457 17.0425V0H156V33H149.822L140.191 5.56027C140.252 6.34383 140.312 7.32329 140.373 8.49863C140.464 9.67397 140.524 10.8945 140.555 12.1603C140.615 13.426 140.646 14.6014 140.646 15.6863V33H136.103Z" fill="#E27055"/>
</svg>
