<svg width="199" height="121" viewBox="0 0 199 121" fill="none" xmlns="http://www.w3.org/2000/svg">
<g clip-path="url(#clip0_0_144)">
<mask id="path-1-inside-1_0_144" fill="white">
<path d="M142 16L132.904 2.744C131.868 1.2352 129.374 0 127.362 0H70.6383C68.6255 0 66.1315 1.2336 65.0959 2.744L56.5 16"/>
</mask>
<path d="M142 16L132.904 2.744C131.868 1.2352 129.374 0 127.362 0H70.6383C68.6255 0 66.1315 1.2336 65.0959 2.744L56.5 16" fill="#1E130F"/>
<path d="M132.904 2.744L133.729 2.17822L133.729 2.17808L132.904 2.744ZM65.0959 2.744L64.2711 2.17849L64.2638 2.18911L64.2568 2.19993L65.0959 2.744ZM142.825 15.4342L133.729 2.17822L132.08 3.30978L141.175 16.5658L142.825 15.4342ZM133.729 2.17808C133.085 1.24013 132.046 0.456269 130.943 -0.0899605C129.834 -0.639079 128.555 -1 127.362 -1V1C128.181 1 129.155 1.25668 130.056 1.70236C130.962 2.15093 131.688 2.73907 132.08 3.30992L133.729 2.17808ZM127.362 -1H70.6383V1H127.362V-1ZM70.6383 -1C69.4447 -1 68.1662 -0.639604 67.0571 -0.0906317C65.9538 0.455441 64.915 1.23943 64.2711 2.17849L65.9206 3.30951C66.3124 2.73817 67.0384 2.15016 67.9443 1.70183C68.8442 1.2564 69.8191 1 70.6383 1V-1ZM64.2568 2.19993L55.661 15.4559L57.339 16.5441L65.9349 3.28807L64.2568 2.19993Z" fill="#E27055" mask="url(#path-1-inside-1_0_144)"/>
<mask id="path-3-inside-2_0_144" fill="white">
<path d="M198 56L179.981 40.1047C178.521 38.9783 175.573 38.0545 173.429 38.0503L142.898 38C141.866 38 140.876 38.2935 140.145 38.8162C139.414 39.3389 139.003 40.048 139 40.7881V54.7637"/>
</mask>
<path d="M198 56L179.981 40.1047C178.521 38.9783 175.573 38.0545 173.429 38.0503L142.898 38C141.866 38 140.876 38.2935 140.145 38.8162C139.414 39.3389 139.003 40.048 139 40.7881V54.7637" fill="#1E130F"/>
<path d="M179.981 40.1047L180.642 39.3548L180.618 39.3331L180.592 39.313L179.981 40.1047ZM173.429 38.0503L173.431 37.0503L173.431 37.0503L173.429 38.0503ZM142.898 38L142.899 37H142.898L142.898 38ZM139 40.7881L138 40.7846V40.7881H139ZM198.662 55.2501L180.642 39.3548L179.319 40.8546L197.338 56.7499L198.662 55.2501ZM180.592 39.313C179.733 38.6506 178.509 38.0938 177.26 37.7025C176.004 37.3086 174.628 37.0527 173.431 37.0503L173.427 39.0503C174.373 39.0522 175.544 39.2602 176.662 39.6109C177.789 39.9641 178.769 40.4325 179.37 40.8964L180.592 39.313ZM173.431 37.0503L142.899 37L142.896 39L173.427 39.0503L173.431 37.0503ZM142.898 37C141.689 37 140.488 37.3413 139.563 38.0029L140.727 39.6295C141.263 39.2457 142.042 39 142.898 39L142.898 37ZM139.563 38.0029C138.634 38.6675 138.004 39.6527 138 40.7846L140 40.7916C140.001 40.4434 140.195 40.0103 140.727 39.6295L139.563 38.0029ZM138 40.7881V54.7637H140V40.7881H138Z" fill="#E27055" mask="url(#path-3-inside-2_0_144)"/>
<mask id="path-5-inside-3_0_144" fill="white">
<path d="M0 76L14.8781 58.2915C16.0723 57.0315 18.7916 56 20.9206 56H56.129C58.2581 56 60 57.2462 60 58.7692V74"/>
</mask>
<path d="M0 76L14.8781 58.2915C16.0723 57.0315 18.7916 56 20.9206 56H56.129C58.2581 56 60 57.2462 60 58.7692V74" fill="#1E130F"/>
<path d="M14.8781 58.2915L14.1523 57.6036L14.1317 57.6254L14.1124 57.6483L14.8781 58.2915ZM0.765642 76.6433L15.6437 58.9348L14.1124 57.6483L-0.765642 75.3567L0.765642 76.6433ZM15.6039 58.9794C16.0581 58.5002 16.8833 57.9952 17.9034 57.6083C18.9109 57.2262 20.0019 57 20.9206 57V55C19.7104 55 18.3772 55.2896 17.1942 55.7383C16.0238 56.1821 14.8923 56.8228 14.1523 57.6036L15.6039 58.9794ZM20.9206 57H56.129V55H20.9206V57ZM56.129 57C57.007 57 57.7663 57.2585 58.2811 57.6268C58.799 57.9973 59 58.4163 59 58.7692H61C61 57.599 60.3301 56.6335 59.4447 56.0002C58.5562 55.3645 57.3801 55 56.129 55V57ZM59 58.7692V74H61V58.7692H59Z" fill="#E27055" mask="url(#path-5-inside-3_0_144)"/>
<path d="M141.2 50.7998C141.2 53.5612 143.439 55.7998 146.2 55.7998H194.872C196.529 55.7998 197.872 57.143 197.872 58.7998V116.8C197.872 118.457 196.529 119.8 194.872 119.8H3.60645C1.94959 119.8 0.606445 118.457 0.606445 116.8V78.0498C0.606445 76.393 1.94959 75.0498 3.60644 75.0498H52.2783C55.0397 75.0498 57.2783 72.8112 57.2783 70.0498V17.5498C57.2783 15.893 58.6215 14.5498 60.2783 14.5498H138.2C139.857 14.5498 141.2 15.893 141.2 17.5498V50.7998Z" fill="#1E130F" stroke="#E27055" stroke-width="2"/>
<path d="M94.0326 52V48.9753H100.359V31.9616L94 36.5301V32.8438L99.4457 29H103.88V48.9753H109V52H94.0326Z" fill="#E27055"/>
<path d="M162.622 101V97.6743L169.646 90.4324C170.723 89.3135 171.511 88.3086 172.008 87.4176C172.526 86.5059 172.785 85.6045 172.785 84.7135C172.785 83.5532 172.464 82.6414 171.822 81.9784C171.2 81.3153 170.34 80.9838 169.242 80.9838C168.04 80.9838 167.087 81.336 166.382 82.0405C165.699 82.7243 165.357 83.6671 165.357 84.8689H162C162.041 83.4599 162.363 82.2477 162.964 81.2324C163.564 80.1964 164.404 79.3986 165.481 78.8392C166.559 78.2797 167.823 78 169.273 78C170.661 78 171.873 78.2694 172.909 78.8081C173.945 79.3468 174.743 80.1032 175.303 81.077C175.862 82.0509 176.142 83.2009 176.142 84.527C176.142 85.8739 175.79 87.1896 175.085 88.4743C174.401 89.759 173.272 91.1887 171.697 92.7635L166.569 97.9541H176.484V101H162.622Z" fill="#E27055"/>
<path d="M30.0243 112C28.5946 112 27.3514 111.731 26.2946 111.192C25.2378 110.653 24.4194 109.897 23.8392 108.923C23.2797 107.928 23 106.778 23 105.473H26.3568C26.3568 106.613 26.6779 107.504 27.3203 108.146C27.9833 108.788 28.895 109.109 30.0554 109.109C31.2365 109.109 32.1482 108.778 32.7905 108.115C33.4329 107.452 33.7541 106.571 33.7541 105.473V103.795C33.7541 102.634 33.4329 101.743 32.7905 101.122C32.1482 100.479 31.2365 100.158 30.0554 100.158H27.6311V96.9878L32.9149 91.9527H23.9635V89H36.3338V92.1703L30.0865 98.0446V97.2365C32.2414 97.2365 33.9509 97.827 35.2149 99.0081C36.4788 100.189 37.1108 101.774 37.1108 103.764V105.473C37.1108 106.778 36.8207 107.928 36.2405 108.923C35.6604 109.897 34.8315 110.653 33.7541 111.192C32.6973 111.731 31.4541 112 30.0243 112Z" fill="#E27055"/>
</g>
<defs>
<clipPath id="clip0_0_144">
<rect width="199" height="121" fill="white"/>
</clipPath>
</defs>
</svg>
