<svg xmlns="http://www.w3.org/2000/svg">
    <symbol id="car" width="318" height="106" viewBox="0 0 318 106">
            <g clip-path="url(#clip0_0_312)">
            <path d="M298.123 91.5839C295.014 91.5839 292.504 89.0725 292.504 85.9832V72.793C292.504 69.7038 295.015 67.1924 298.123 67.1924C301.231 67.1924 303.741 69.7038 303.741 72.793V85.9832C303.741 89.0725 301.231 91.5839 298.123 91.5839Z" fill="#1E130F" stroke="#E27055" stroke-width="2"/>
            <path d="M311.382 98.1845H284.869C281.769 98.1845 279.25 95.6721 279.25 92.5838C279.25 89.4955 281.769 86.9832 284.869 86.9832H311.382C314.481 86.9832 317 89.4955 317 92.5838C317 95.6721 314.481 98.1845 311.382 98.1845Z" fill="#1E130F" stroke="#E27055" stroke-width="2"/>
            <path d="M245.118 40.8076C245.808 40.8076 262.441 40.8463 279.355 44.2094C289.655 46.2643 297.9 49.1429 303.92 52.7363C314.813 59.2387 317 67.2671 317 72.7905C317 75.8788 314.481 78.3911 311.381 78.3911H245.118C242.019 78.3911 239.5 75.8788 239.5 72.7905V46.3984C239.5 43.3125 242.017 40.8076 245.118 40.8076Z" fill="#1E130F" stroke="#E27055" stroke-width="2"/>
            <path d="M42.0547 96.1622L42.0582 96.1663C43.1238 97.4452 44.7052 98.184 46.3755 98.184H192.134C193.342 98.184 194.521 97.7913 195.506 97.0577L222.007 77.2681C224.485 75.4157 224.988 71.9076 223.127 69.4308C223.127 69.4307 223.127 69.4306 223.127 69.4305L223.926 68.8298C223.361 68.0781 223.173 63.4529 224.022 63.0485L244.497 53.297C244.907 53.1018 245.357 53.0117 245.809 52.9654C249.153 52.6228 251.758 49.8125 251.758 46.3998C251.758 42.7562 248.789 39.8091 245.12 39.8091H178.793C173.403 39.8091 170.707 39.8091 168.533 39.0766C164.386 37.6799 161.131 34.4247 159.734 30.2781C159.002 28.1036 159.002 25.4083 159.002 20.0176C159.002 16.374 156.037 13.417 152.378 13.417C84.4027 13.417 51.5916 41.5582 50.2283 42.7569L42.0547 96.1622ZM42.0547 96.1622C40.986 94.8937 40.5415 93.2155 40.8418 91.5752C40.8419 91.575 40.8419 91.5749 40.8419 91.5748L49.0813 46.6973C49.0813 46.6972 49.0814 46.6971 49.0814 46.697C49.3074 45.4706 49.9445 44.3462 50.8902 43.5064L42.0547 96.1622Z" fill="#1E130F" stroke="#E27055" stroke-width="2"/>
            <path d="M40.7489 96.0645C40.8355 95.988 41.0343 95.8459 41.3366 95.8413C41.5098 95.8386 41.6538 95.881 41.7685 95.9388C41.7782 95.9044 41.7879 95.8691 41.7978 95.8329C41.4996 95.4196 41.2624 94.9706 41.0895 94.4993C41.0504 94.6784 41.0123 94.8467 40.9752 95.0038C40.8687 95.4556 40.7781 95.7821 40.7062 95.9955C40.7203 96.0185 40.7345 96.0415 40.7489 96.0645ZM40.8418 91.5752C40.8419 91.5751 40.8419 91.5749 40.8419 91.5748L39.8583 91.3946L40.8418 91.5752ZM46.58 60.3212L47.6105 54.7082C47.4402 55.5438 47.2646 56.4629 47.0849 57.448C46.9203 58.3506 46.7517 59.3125 46.58 60.3212ZM49.0813 46.6973C49.0813 46.6972 49.0814 46.6971 49.0814 46.697L48.0979 46.5161L49.0813 46.6973ZM50.0295 49.1227L50.0029 49.1252L50.0972 50.1207V49.1207C50.0742 49.1207 50.0517 49.1214 50.0295 49.1227ZM50.8886 43.5079C50.8891 43.5074 50.8896 43.5069 50.8902 43.5064C50.8908 43.5059 50.8914 43.5054 50.8919 43.5049L50.2283 42.7569L50.8886 43.5079Z" fill="#1E130F" stroke="#E27055" stroke-width="2"/>
            <path d="M62.7424 22.5276L62.7405 22.5299L25.1458 67.0807L25.1447 67.0821C24.122 68.2984 22.6079 69 21.0067 69H7.39868C4.41183 69 2 66.5909 2 63.6328V6.35767C2 3.40154 4.40987 1 7.39868 1H58.6013C61.5901 1 64 3.40207 64 6.35767V19.0921C64 20.3484 63.5532 21.5726 62.7424 22.5276Z" fill="#1E130F" stroke="#E27055" stroke-width="2"/>
            <path d="M14.2542 72.7911C14.2542 55.159 28.66 40.8076 46.3759 40.8076C64.0968 40.8076 78.5025 55.1597 78.5025 72.7911C78.5025 90.4212 64.0969 104.773 46.3759 104.773C28.6599 104.773 14.2542 90.4212 14.2542 72.7911Z" fill="#1E130F" stroke="#E27055" stroke-width="2"/>
            <path d="M50.3539 76.7534C48.1578 78.9351 44.5915 78.9351 42.3954 76.7533C40.2016 74.5638 40.2015 71.0243 42.3953 68.8348C44.5914 66.6528 48.1579 66.6527 50.354 68.8347C52.5479 71.0242 52.5479 74.5639 50.3539 76.7534Z" fill="#1E130F" stroke="#E27055" stroke-width="2"/>
            <path d="M181.196 43.1265V95.8649C181.196 97.1456 180.158 98.1838 178.877 98.1838C177.597 98.1838 176.559 97.1456 176.559 95.8649V43.1265C176.559 41.8458 177.597 40.8076 178.877 40.8076C180.158 40.8076 181.196 41.8458 181.196 43.1265Z" fill="#1E130F" stroke="#E27055" stroke-width="2"/>
            <path d="M145.749 78.3927H105.998C102.889 78.3927 100.375 75.8804 100.375 72.7921C100.375 69.7037 102.889 67.1914 105.998 67.1914H145.749C148.859 67.1914 151.376 69.7046 151.376 72.7921C151.376 75.8795 148.859 78.3927 145.749 78.3927Z" fill="#1E130F" stroke="#E27055" stroke-width="2"/>
            <path d="M213.004 72.7911C213.004 55.1587 227.402 40.8076 245.117 40.8076C262.842 40.8076 277.248 55.1598 277.248 72.7911C277.248 90.421 262.842 104.773 245.117 104.773C227.401 104.773 213.004 90.4216 213.004 72.7911Z" fill="#1E130F" stroke="#E27055" stroke-width="2"/>
            <path d="M249.111 76.7532C246.909 78.9361 243.338 78.9339 241.148 76.7539C238.958 74.5642 238.958 71.0236 241.148 68.834C243.338 66.654 246.909 66.6518 249.111 68.8347C251.299 71.0242 251.299 74.5637 249.111 76.7532Z" fill="#1E130F" stroke="#E27055" stroke-width="2"/>
            </g>
            <defs>
            <clipPath id="clip0_0_312">
            <rect width="318" height="106" fill="white"/>
            </clipPath>
            </defs>
    </symbol>

  <symbol id="car-line" width="3663" height="2" viewBox="0 0 3663 2">
    <path d="M0 1H3663" stroke="#E27055" stroke-width="2" stroke-dasharray="74 74"/>
  </symbol>

  <symbol id="logo" width="156" height="33" viewBox="0 0 156 33">
    <path d="M0 33V0H9.2672C11.4477 0 13.3405 0.421918 14.9456 1.26575C16.5507 2.07945 17.7924 3.23973 18.6707 4.74658C19.5792 6.25342 20.0335 8.03151 20.0335 10.0808V22.874C20.0335 24.8932 19.5792 26.6712 18.6707 28.2082C17.7924 29.7452 16.5507 30.9356 14.9456 31.7795C13.3405 32.5932 11.4477 33 9.2672 33H0ZM4.90617 28.5699H9.2672C11.0843 28.5699 12.5077 28.0726 13.5374 27.0781C14.5974 26.0534 15.1273 24.6521 15.1273 22.874V10.0808C15.1273 8.33288 14.5974 6.96164 13.5374 5.96712C12.5077 4.94246 11.0843 4.43014 9.2672 4.43014H4.90617V28.5699Z" fill="#E27055"/>
    <path d="M27.2842 33V0H37.687C39.7767 0 41.5938 0.406849 43.1383 1.22055C44.6829 2.00411 45.8791 3.11918 46.7271 4.56575C47.6054 6.01233 48.0445 7.71507 48.0445 9.67397C48.0445 11.874 47.4691 13.7877 46.3183 15.4151C45.1977 17.0123 43.6683 18.1425 41.7301 18.8055L48.4988 33H42.9112L36.8693 19.4384H32.1903V33H27.2842ZM32.1903 15.1438H37.687C39.3224 15.1438 40.6247 14.6616 41.5938 13.6973C42.5629 12.7027 43.0475 11.3918 43.0475 9.76439C43.0475 8.07671 42.5629 6.75068 41.5938 5.7863C40.6247 4.82192 39.3224 4.33973 37.687 4.33973H32.1903V15.1438Z" fill="#E27055"/>
    <path d="M55.1589 33V28.6603H61.8367V4.33973H55.1589V0H73.5116V4.33973H66.8337V28.6603H73.5116V33H55.1589Z" fill="#E27055"/>
    <path d="M88.3032 33L79.8991 0H84.9415L90.2565 21.9699C90.5897 23.2658 90.8774 24.5616 91.1197 25.8575C91.3922 27.1233 91.5891 28.1178 91.7102 28.8411C91.8314 28.1178 91.9979 27.1233 92.2099 25.8575C92.4522 24.5616 92.7399 23.2507 93.073 21.9247L98.3426 0H103.249L94.7993 33H88.3032Z" fill="#E27055"/>
    <path d="M109.455 33V0H128.943V4.33973H114.27V13.6973H127.353V17.9918H114.27V28.6603H128.943V33H109.455Z" fill="#E27055"/>
    <path d="M136.103 33V0H142.281L151.957 27.4397C151.896 26.5658 151.821 25.526 151.73 24.3205C151.639 23.1151 151.563 21.8644 151.503 20.5685C151.472 19.2726 151.457 18.0973 151.457 17.0425V0H156V33H149.822L140.191 5.56027C140.252 6.34383 140.312 7.32329 140.373 8.49863C140.464 9.67397 140.524 10.8945 140.555 12.1603C140.615 13.426 140.646 14.6014 140.646 15.6863V33H136.103Z" fill="#E27055"/>
  </symbol>

  <symbol id="gamepad" width="635" height="379" viewBox="0 0 635 379">
        <path opacity="0.5" d="M76.2754 235.779L76.2486 235.841L76.2302 235.905C74.603 241.638 74.6165 248.448 75.4106 255.166C76.2064 261.898 77.796 268.614 79.38 274.195C85.9138 297.216 114.159 308.352 136.693 297.767C156.182 288.613 172.081 277.022 180.611 263.296C189.193 249.487 190.256 233.603 180.225 216.167C176.04 208.892 167.712 205.605 157.816 204.868C147.895 204.13 136.158 205.928 124.757 209.078C113.346 212.232 102.202 216.759 93.4517 221.531C89.0769 223.917 85.28 226.375 82.3404 228.767C79.4239 231.14 77.2585 233.522 76.2754 235.779ZM557.021 235.905L557.003 235.841L556.976 235.779C555.993 233.522 553.827 231.14 550.911 228.767C547.971 226.375 544.174 223.917 539.8 221.531C531.049 216.759 519.906 212.232 508.495 209.078C497.093 205.928 485.356 204.13 475.436 204.868C465.539 205.605 457.211 208.892 453.027 216.167C442.996 233.603 444.058 249.487 452.64 263.296C461.17 277.022 477.07 288.613 496.558 297.767C519.093 308.352 547.338 297.216 553.871 274.195C555.455 268.614 557.045 261.898 557.841 255.166C558.635 248.448 558.648 241.638 557.021 235.905ZM52.8961 36.46C55.0323 34.58 59.3576 32.6807 65.6611 30.835C71.9151 29.004 79.9631 27.2668 89.4001 25.6354C108.271 22.3732 132.612 19.5475 159.087 17.2301C212.034 12.5955 273.437 10.0002 316.513 10C359.573 9.9998 422.978 14.0665 477.685 20.3533C505.039 23.4967 530.196 27.1927 549.537 31.2078C559.21 33.2158 567.405 35.299 573.683 37.4254C576.823 38.4886 579.465 39.5566 581.565 40.6227C583.678 41.695 585.183 42.7359 586.101 43.7216C601.767 60.5417 641.871 108.699 632.635 203.287C623.379 298.083 590.225 349.752 569.602 368.086C564.577 372.553 556.957 375.608 548.094 377.051C539.247 378.491 529.25 378.31 519.557 376.385C500.119 372.523 482.214 361.733 476.953 343.333C476.199 340.695 473.519 338.35 469.786 336.237C465.991 334.089 460.854 332.041 454.77 330.112C442.592 326.25 426.458 322.809 409.284 319.992C374.976 314.366 336.335 311.201 316.513 312.188C296.691 311.201 258.509 314.366 224.66 319.993C207.715 322.809 191.81 326.25 179.804 330.113C173.805 332.043 168.739 334.091 164.995 336.24C161.309 338.355 158.665 340.7 157.912 343.333C152.651 361.733 134.746 372.523 115.309 376.385C105.615 378.31 95.6178 378.491 86.7708 377.051C77.9083 375.608 70.288 372.553 65.2635 368.086C44.6401 349.752 11.486 298.083 2.22978 203.287C-7.00825 108.678 38.365 49.248 52.8961 36.46ZM78.848 93.7919C74.894 105.575 71.4711 127.156 71.4695 137.76C71.469 140.798 71.8681 147.324 77.9683 151.968C84.0257 156.579 95.4167 159.108 116.769 155.022C138.08 150.944 157.759 144.619 171.336 134.396C178.138 129.275 183.434 123.156 186.618 115.831C189.805 108.501 190.851 100.024 189.248 90.238C188.024 82.7641 182.051 78.3094 173.904 75.9034C165.752 73.4964 155.165 73.045 144.129 73.7252C122.048 75.086 97.7888 81.0053 86.7422 85.3822C82.8466 86.9257 80.1117 90.0262 78.848 93.7919ZM561.782 137.76C561.78 127.156 558.357 105.575 554.403 93.7919C553.14 90.0262 550.405 86.9257 546.509 85.3822C535.462 81.0053 511.204 75.086 489.122 73.7252C478.086 73.045 467.499 73.4964 459.348 75.9034C451.2 78.3094 445.227 82.7641 444.003 90.238C442.401 100.024 443.446 108.501 446.633 115.831C449.818 123.156 455.113 129.275 461.915 134.396C475.492 144.619 495.171 150.944 516.482 155.022C537.835 159.108 549.226 156.579 555.283 151.968C561.383 147.324 561.782 140.798 561.782 137.76Z" fill="#E27055" stroke="#E27055" stroke-width="2"/>
        <path d="M76.2754 226.779L76.2486 226.841L76.2302 226.905C74.603 232.638 74.6165 239.448 75.4106 246.166C76.2064 252.898 77.796 259.614 79.38 265.195C85.9138 288.216 114.159 299.352 136.693 288.767C156.182 279.613 172.081 268.022 180.611 254.296C189.193 240.487 190.256 224.603 180.225 207.167C176.04 199.892 167.712 196.605 157.816 195.868C147.895 195.13 136.158 196.928 124.757 200.078C113.346 203.232 102.202 207.759 93.4517 212.531C89.0769 214.917 85.28 217.375 82.3404 219.767C79.4239 222.14 77.2585 224.522 76.2754 226.779ZM557.021 226.905L557.003 226.841L556.976 226.779C555.993 224.522 553.827 222.14 550.911 219.767C547.971 217.375 544.174 214.917 539.8 212.531C531.049 207.759 519.906 203.232 508.495 200.078C497.093 196.928 485.356 195.13 475.436 195.868C465.539 196.605 457.211 199.892 453.027 207.167C442.996 224.603 444.058 240.487 452.64 254.296C461.17 268.022 477.07 279.613 496.558 288.767C519.093 299.352 547.338 288.216 553.871 265.195C555.455 259.614 557.045 252.898 557.841 246.166C558.635 239.448 558.648 232.638 557.021 226.905ZM52.8961 27.46C55.0323 25.58 59.3576 23.6807 65.6611 21.835C71.9151 20.004 79.9631 18.2668 89.4001 16.6354C108.271 13.3732 132.612 10.5475 159.087 8.2301C212.034 3.59552 273.437 1.0002 316.513 1C359.573 0.999804 422.978 5.0665 477.685 11.3533C505.039 14.4967 530.196 18.1927 549.537 22.2078C559.21 24.2158 567.405 26.299 573.683 28.4254C576.823 29.4886 579.465 30.5566 581.565 31.6227C583.678 32.695 585.183 33.7359 586.101 34.7216C601.767 51.5417 641.871 99.6986 632.635 194.287C623.379 289.083 590.225 340.752 569.602 359.086C564.577 363.553 556.957 366.608 548.094 368.051C539.247 369.491 529.25 369.31 519.557 367.385C500.119 363.523 482.214 352.733 476.953 334.333C476.199 331.695 473.519 329.35 469.786 327.237C465.991 325.089 460.854 323.041 454.77 321.112C442.592 317.25 426.458 313.809 409.284 310.992C374.976 305.366 336.335 302.201 316.513 303.188C296.691 302.201 258.509 305.366 224.66 310.993C207.715 313.809 191.81 317.25 179.804 321.113C173.805 323.043 168.739 325.091 164.995 327.24C161.309 329.355 158.665 331.7 157.912 334.333C152.651 352.733 134.746 363.523 115.309 367.385C105.615 369.31 95.6178 369.491 86.7708 368.051C77.9083 366.608 70.288 363.553 65.2635 359.086C44.6401 340.752 11.486 289.083 2.22978 194.287C-7.00825 99.6778 38.365 40.248 52.8961 27.46ZM78.848 84.7919C74.894 96.5746 71.4711 118.156 71.4695 128.76C71.469 131.798 71.8681 138.324 77.9683 142.968C84.0257 147.579 95.4167 150.108 116.769 146.022C138.08 141.944 157.759 135.619 171.336 125.396C178.138 120.275 183.434 114.156 186.618 106.831C189.805 99.5006 190.851 91.0245 189.248 81.238C188.024 73.7641 182.051 69.3094 173.904 66.9034C165.752 64.4964 155.165 64.045 144.129 64.7252C122.048 66.086 97.7888 72.0053 86.7422 76.3822C82.8466 77.9257 80.1117 81.0262 78.848 84.7919ZM561.782 128.76C561.78 118.156 558.357 96.5746 554.403 84.7919C553.14 81.0262 550.405 77.9257 546.509 76.3822C535.462 72.0053 511.204 66.086 489.122 64.7252C478.086 64.045 467.499 64.4964 459.348 66.9034C451.2 69.3094 445.227 73.7641 444.003 81.238C442.401 91.0245 443.446 99.5006 446.633 106.831C449.818 114.156 455.113 120.275 461.915 125.396C475.492 135.619 495.171 141.944 516.482 146.022C537.835 150.108 549.226 147.579 555.283 142.968C561.383 138.324 561.782 131.798 561.782 128.76Z" fill="#1E130F" stroke="#E27055" stroke-width="2"/>
        <g opacity="0.5">
        <circle opacity="0.5" cx="273" cy="272" r="12" fill="#E27055"/>
        <ellipse opacity="0.5" cx="273" cy="271" rx="12" ry="11" fill="#E27055"/>
        <circle opacity="0.5" cx="242.5" cy="283.5" r="5.5" fill="#E27055"/>
        <ellipse opacity="0.5" cx="242.5" cy="283" rx="5.5" ry="5" fill="#0A0A0A"/>
        <circle opacity="0.5" cx="204.5" cy="240.5" r="8.5" fill="#E27055"/>
        <ellipse opacity="0.5" cx="204.5" cy="240" rx="8.5" ry="8" fill="#0A0A0A"/>
        <circle opacity="0.5" cx="154" cy="163" r="12" fill="#E27055"/>
        <ellipse opacity="0.5" cx="154" cy="162" rx="12" ry="11" fill="#0A0A0A"/>
        <circle opacity="0.5" cx="203" cy="159" r="12" fill="#E27055"/>
        <ellipse opacity="0.5" cx="203" cy="158" rx="12" ry="11" fill="#E27055"/>
        <circle opacity="0.5" cx="204.5" cy="30.5" r="5.5" fill="#E27055"/>
        <ellipse opacity="0.5" cx="204.5" cy="30" rx="5.5" ry="5" fill="#0A0A0A"/>
        <circle opacity="0.5" cx="164.5" cy="35.5" r="10.5" fill="#E27055"/>
        <ellipse opacity="0.5" cx="164.5" cy="35" rx="10.5" ry="10" fill="#E27055"/>
        <circle opacity="0.5" cx="121.5" cy="41.5" r="10.5" fill="#E27055"/>
        <ellipse opacity="0.5" cx="121.5" cy="41" rx="10.5" ry="10" fill="#0A0A0A"/>
        </g>
        <g opacity="0.5">
        <circle opacity="0.5" cx="12" cy="12" r="12" transform="matrix(-1 0 0 1 373 260)" fill="#E27055"/>
        <ellipse opacity="0.5" cx="12" cy="11" rx="12" ry="11" transform="matrix(-1 0 0 1 373 260)" fill="#E27055"/>
        <circle opacity="0.5" cx="5.5" cy="5.5" r="5.5" transform="matrix(-1 0 0 1 397 278)" fill="#E27055"/>
        <ellipse opacity="0.5" cx="5.5" cy="5" rx="5.5" ry="5" transform="matrix(-1 0 0 1 397 278)" fill="#0A0A0A"/>
        <circle opacity="0.5" cx="8.5" cy="8.5" r="8.5" transform="matrix(-1 0 0 1 438 232)" fill="#E27055"/>
        <ellipse opacity="0.5" cx="8.5" cy="8" rx="8.5" ry="8" transform="matrix(-1 0 0 1 438 232)" fill="#0A0A0A"/>
        <circle opacity="0.5" cx="12" cy="12" r="12" transform="matrix(-1 0 0 1 492 151)" fill="#E27055"/>
        <ellipse opacity="0.5" cx="12" cy="11" rx="12" ry="11" transform="matrix(-1 0 0 1 492 151)" fill="#0A0A0A"/>
        <circle opacity="0.5" cx="12" cy="12" r="12" transform="matrix(-1 0 0 1 443 147)" fill="#E27055"/>
        <ellipse opacity="0.5" cx="12" cy="11" rx="12" ry="11" transform="matrix(-1 0 0 1 443 147)" fill="#E27055"/>
        <circle opacity="0.5" cx="5.5" cy="5.5" r="5.5" transform="matrix(-1 0 0 1 435 25)" fill="#E27055"/>
        <ellipse opacity="0.5" cx="5.5" cy="5" rx="5.5" ry="5" transform="matrix(-1 0 0 1 435 25)" fill="#0A0A0A"/>
        <circle opacity="0.5" cx="10.5" cy="10.5" r="10.5" transform="matrix(-1 0 0 1 480 25)" fill="#E27055"/>
        <ellipse opacity="0.5" cx="10.5" cy="10" rx="10.5" ry="10" transform="matrix(-1 0 0 1 480 25)" fill="#E27055"/>
        <circle opacity="0.5" cx="10.5" cy="10.5" r="10.5" transform="matrix(-1 0 0 1 523 31)" fill="#E27055"/>
        <ellipse opacity="0.5" cx="10.5" cy="10" rx="10.5" ry="10" transform="matrix(-1 0 0 1 523 31)" fill="#0A0A0A"/>
        </g>
        <g opacity="0.5">
        <rect x="205" y="55" width="224" height="75" rx="10" fill="#673629"/>
        </g>
  </symbol>

  <symbol id="header-icon" width="24" height="24" viewBox="0 0 24 24">
    <path d="M16.5 22C18.9853 22 21 17.5228 21 12C21 6.47715 18.9853 2 16.5 2" stroke="#E27055" stroke-width="2"/>
    <path d="M12 12C12 17.5228 9.98528 22 7.5 22C5.01472 22 3 17.5228 3 12C3 6.47715 5.01472 2 7.5 2C9.98528 2 12 6.47715 12 12Z" stroke="#E27055" stroke-width="2"/>
    <path d="M7.5 22C9.98528 22 12 17.5228 12 12C12 6.47715 9.98528 2 7.5 2" stroke="#E27055" stroke-width="2"/>
    <path d="M9 12C9 15.3137 8.32843 18 7.5 18C6.67157 18 6 15.3137 6 12C6 8.68629 6.67157 6 7.5 6C8.32843 6 9 8.68629 9 12Z" stroke="#E27055" stroke-width="2"/>
    <path d="M7.5 2H16.5" stroke="#E27055" stroke-width="2"/>
    <path d="M7.5 22H16.5" stroke="#E27055" stroke-width="2"/>
  </symbol>

  <symbol id="button-icon" width="48" height="48" viewBox="0 0 48 48">
    <path d="M29.8829 25.4307H15.588L18.9602 21.6839H31.7522L32.2653 22.2659L29.8829 25.4307Z" fill="#1E130F"/>
    <path d="M10.6032 31.1419L1.62311 41H27.881C30.602 41 37.1769 41 41.392 36.8167C45.6145 32.6261 46.8778 27.5163 47 25.4307H35.6741C35.332 26.3765 34.4719 28.5591 33.7681 29.7232C33.0644 30.8872 31.8377 31.154 31.3124 31.1419H10.6032Z" fill="#1E130F"/>
    <path d="M17.0175 15.7909L1 6.07824C1 6.07824 15.3195 6.00549 24.4948 6.00549C32.0821 6.00549 37.3968 5.6781 41.9785 10.0797C44.6467 12.6431 46.6701 16.9549 47 18.5919H35.6741C35.1976 17.7188 34.2835 17.0056 33.4749 16.5184C32.4486 15.9 31.4345 15.7787 30.9092 15.7909H17.0175Z" fill="#1E130F"/>
  </symbol>

  <symbol id="home-icon-visited" width="24" height="24" viewBox="0 0 24 24">
    <g opacity="0.5">
    <path d="M11.3099 19.4863L11.3099 19.4863C12.2205 17.5188 12.7571 14.8711 12.7571 12C12.7571 9.12894 12.2205 6.48118 11.3099 4.51373L11.3099 4.51372C10.9612 3.76042 10.5115 3.06776 9.9947 2.5H16.3714C17.3377 2.5 18.3703 3.36689 19.1905 5.13895C19.9913 6.86904 20.5 9.29427 20.5 12C20.5 14.7057 19.9913 17.1309 19.1905 18.861C18.3703 20.6331 17.3377 21.5 16.3714 21.5H9.99469C10.5115 20.9322 10.9612 20.2396 11.3099 19.4863Z" stroke="#E27055"/>
    <path d="M9.14495 12.766L9.1615 12.25H8.64521H7.62857C7.4653 12.25 7.35714 12.1249 7.35714 12C7.35714 11.8751 7.4653 11.75 7.62857 11.75H8.64521H9.1615L9.14495 11.234C9.09664 9.7274 8.90712 8.37089 8.61953 7.37622C8.47675 6.88242 8.30174 6.44904 8.08882 6.12784C7.88931 5.82687 7.57057 5.5 7.11429 5.5C6.62225 5.5 6.28951 5.87784 6.0865 6.21177C5.86548 6.5753 5.6843 7.06807 5.53908 7.63284C5.24669 8.76991 5.07143 10.3137 5.07143 12C5.07143 13.6863 5.24669 15.2301 5.53908 16.3672C5.6843 16.9319 5.86548 17.4247 6.0865 17.7882C6.28951 18.1222 6.62225 18.5 7.11429 18.5C7.57058 18.5 7.88931 18.1731 8.08882 17.8722C8.30174 17.551 8.47675 17.1176 8.61953 16.6238C8.90712 15.6291 9.09664 14.2726 9.14495 12.766ZM9.46444 5.34413L9.91819 5.13411L9.46444 5.34413C10.229 6.996 10.7286 9.34825 10.7286 12C10.7286 14.6518 10.229 17.004 9.46444 18.6559C8.65957 20.3947 7.75335 21 7.11429 21C6.47522 21 5.569 20.3947 4.76413 18.6559C3.99956 17.004 3.5 14.6518 3.5 12C3.5 9.34824 3.99955 6.996 4.76413 5.34413C5.569 3.60523 6.47522 3 7.11429 3C7.75335 3 8.65957 3.60523 9.46444 5.34413Z" stroke="#E27055"/>
    </g>
  </symbol>

  <symbol id="home-icon" width="24" height="24" viewBox="0 0 24 24">
    <path d="M21 12C21 17.5228 18.9277 22 16.3714 22H8.6571C9.52356 21.4385 10.3126 20.4506 10.8562 19.2763C11.73 17.3884 12.2571 14.8154 12.2571 12C12.2571 9.18462 11.73 6.61163 10.8562 4.72375C10.3126 3.54939 9.52356 2.56147 8.6571 2H16.3714C18.9277 2 21 6.47715 21 12Z" fill="#E27055"/>
    <path fill-rule="evenodd" clip-rule="evenodd" d="M4.31038 5.13411C3.50898 6.86553 3 9.29254 3 12C3 14.7075 3.50898 17.1345 4.31038 18.8659C5.1335 20.6442 6.16457 21.5 7.11429 21.5C8.064 21.5 9.09507 20.6442 9.91819 18.8659C10.7196 17.1345 11.2286 14.7075 11.2286 12C11.2286 9.29254 10.7196 6.86553 9.91819 5.13411C9.09507 3.35577 8.064 2.5 7.11429 2.5C6.16457 2.5 5.1335 3.35577 4.31038 5.13411ZM5.57143 12C5.57143 15.3137 6.26219 18 7.11429 18C7.90107 18 8.5503 15.7097 8.64521 12.75H7.62857C7.20252 12.75 6.85714 12.4142 6.85714 12C6.85714 11.5858 7.20252 11.25 7.62857 11.25H8.64521C8.5503 8.29027 7.90107 6 7.11429 6C6.26219 6 5.57143 8.68629 5.57143 12Z" fill="#E27055"/>
  </symbol>

  <symbol id="refferals-icon-visited" width="24" height="24" viewBox="0 0 24 24">
    <g opacity="0.5">
    <mask id="path-1-inside-1_0_68" fill="white">
    <path fill-rule="evenodd" clip-rule="evenodd" d="M4.41382 17.859C4.77164 17.6504 5.23086 17.7713 5.43952 18.1291C6.26638 19.5471 7.53048 20.6193 9.08935 21.3151C9.4676 21.4839 9.63738 21.9274 9.46856 22.3057C9.29974 22.6839 8.85626 22.8537 8.47801 22.6849C6.6665 21.8764 5.14669 20.6046 4.14374 18.8847C3.93508 18.5269 4.056 18.0677 4.41382 17.859Z"/>
    </mask>
    <path d="M4.41382 17.859L3.40654 16.1312L3.40618 16.1314L4.41382 17.859ZM5.43952 18.1291L7.16724 17.1216L7.16719 17.1216L5.43952 18.1291ZM9.08935 21.3151L8.27417 23.1414L8.27429 23.1415L9.08935 21.3151ZM9.46856 22.3057L11.2949 23.1209L11.2949 23.1207L9.46856 22.3057ZM8.47801 22.6849L7.66288 24.5113L7.66295 24.5113L8.47801 22.6849ZM4.14374 18.8847L5.87144 17.8772L5.87141 17.8772L4.14374 18.8847ZM5.4211 19.5868C4.82491 19.9344 4.05966 19.7331 3.71184 19.1366L7.16719 17.1216C6.40206 15.8096 4.71836 15.3664 3.40654 16.1312L5.4211 19.5868ZM3.7118 19.1366C4.77339 20.9571 6.37839 22.2953 8.27417 23.1414L9.90453 19.4888C8.68257 18.9434 7.75936 18.1371 7.16724 17.1216L3.7118 19.1366ZM8.27429 23.1415C7.64367 22.8601 7.36094 22.1209 7.64217 21.4907L11.2949 23.1207C11.9138 21.734 11.2915 20.1077 9.9044 19.4887L8.27429 23.1415ZM7.64225 21.4905C7.92361 20.8602 8.66264 20.5772 9.29306 20.8585L7.66295 24.5113C9.04988 25.1302 10.6759 24.5076 11.2949 23.1209L7.64225 21.4905ZM9.29313 20.8585C7.81838 20.2003 6.63956 19.1944 5.87144 17.8772L2.41604 19.8922C3.65382 22.0148 5.51462 23.5525 7.66288 24.5113L9.29313 20.8585ZM5.87141 17.8772C6.21929 18.4737 6.01754 19.239 5.42146 19.5866L3.40618 16.1314C2.09446 16.8965 1.65086 18.5801 2.41606 19.8922L5.87141 17.8772Z" fill="#E27055" mask="url(#path-1-inside-1_0_68)"/>
    <mask id="path-3-inside-2_0_68" fill="white">
    <path fill-rule="evenodd" clip-rule="evenodd" d="M18.9059 3.92194C17.892 2.88646 16.446 2.50452 15.0304 2.9073C14.632 3.02066 14.2172 2.78959 14.1038 2.39119C13.9905 1.99279 14.2215 1.57792 14.6199 1.46456C16.5581 0.913074 18.5746 1.43959 19.9776 2.8725C20.2674 3.16846 20.2624 3.64331 19.9665 3.9331C19.6705 4.2229 19.1957 4.2179 18.9059 3.92194Z"/>
    </mask>
    <path d="M18.9059 3.92194L17.4768 5.32119L17.4769 5.32121L18.9059 3.92194ZM15.0304 2.9073L14.483 0.983653L14.483 0.983657L15.0304 2.9073ZM14.1038 2.39119L12.18 2.93827L12.1802 2.93872L14.1038 2.39119ZM14.6199 1.46456L14.0725 -0.459083L14.0725 -0.459082L14.6199 1.46456ZM19.9776 2.8725L18.5485 4.27172L18.5486 4.27177L19.9776 2.8725ZM19.9665 3.9331L21.3656 5.3622L21.3658 5.36199L19.9665 3.9331ZM20.3349 2.5227C18.8022 0.957421 16.5956 0.382554 14.483 0.983653L15.5777 4.83095C16.2963 4.62649 16.9817 4.8155 17.4768 5.32119L20.3349 2.5227ZM14.483 0.983657C15.1472 0.794669 15.8385 1.18003 16.0274 1.84366L12.1802 2.93872C12.5959 4.39916 14.1167 5.24665 15.5777 4.83095L14.483 0.983657ZM16.0275 1.84411C16.2162 2.50761 15.8315 3.19918 15.1672 3.38821L14.0725 -0.459082C12.6114 -0.0433352 11.7647 1.47797 12.18 2.93827L16.0275 1.84411ZM15.1672 3.38821C16.4087 3.03495 17.6645 3.36888 18.5485 4.27172L21.4066 1.47328C19.4846 -0.489692 16.7074 -1.2088 14.0725 -0.459083L15.1672 3.38821ZM18.5486 4.27177C18.0656 3.77852 18.0739 2.9872 18.5671 2.50421L21.3658 5.36199C22.4508 4.29942 22.4691 2.5584 21.4066 1.47324L18.5486 4.27177ZM18.5673 2.504C19.0605 2.02117 19.8518 2.02939 20.3349 2.52268L17.4769 5.32121C18.5395 6.40641 20.2805 6.42464 21.3656 5.3622L18.5673 2.504Z" fill="#E27055" mask="url(#path-3-inside-2_0_68)"/>
    <path d="M9.55259 10.029L9.55255 10.0289L6.23422 4.33848C6.2257 4.33855 6.21548 4.33928 6.20355 4.34121C6.17524 4.34577 6.13121 4.35802 6.0735 4.391C6.01557 4.42411 5.9846 4.45467 5.96895 4.4736C5.9683 4.47439 5.96766 4.47518 5.96704 4.47595L9.69757 10.8732C9.69757 10.8732 9.69758 10.8733 9.69758 10.8733C10.1844 11.708 9.90242 12.7796 9.06747 13.2665C8.23255 13.7535 7.16099 13.4714 6.6741 12.6364L9.55259 10.029ZM9.55259 10.029C10.0394 10.8637 11.1109 11.1461 11.9459 10.6591L9.55259 10.029ZM12.576 8.26578L12.5761 8.26589C13.0628 9.1007 12.7808 10.1721 11.9459 10.659L12.576 8.26578ZM12.576 8.26578L10.1083 4.03402M12.576 8.26578L10.1083 4.03402M16.9159 11.6685L16.9158 11.6685C15.7554 12.3317 15.6031 13.4567 15.9435 14.0406L15.9436 14.0406C16.4303 14.8754 16.1485 15.9469 15.3134 16.4338L16.9159 11.6685ZM16.9159 11.6685C17.3211 11.4368 17.6169 11.053 17.7378 10.6022L16.9159 11.6685ZM12.9201 15.8038L12.92 15.8037C11.749 13.7955 12.2628 11.4454 13.6701 9.85535L14.3996 10.501L13.6701 9.85534C13.7161 9.80338 13.7389 9.74719 13.7452 9.70816C13.7481 9.69036 13.7469 9.68038 13.7464 9.6776C13.7464 9.67743 13.7464 9.67728 13.7464 9.67715L10.3755 3.89655C10.367 3.89662 10.3568 3.89736 10.3448 3.89928C10.3165 3.90384 10.2725 3.9161 10.2148 3.94907L12.9201 15.8038ZM12.9201 15.8038C13.407 16.6385 14.4783 16.9208 15.3132 16.434L12.9201 15.8038ZM10.1083 4.03402C10.1089 4.03325 10.1096 4.03247 10.1102 4.03167C10.1259 4.01275 10.1568 3.98219 10.2147 3.94909L10.1083 4.03402ZM15.9334 6.47948L17.5591 9.26746C17.5591 9.2675 17.5591 9.26754 17.5592 9.26758C17.7942 9.67063 17.8587 10.151 17.7378 10.6021L15.9334 6.47948ZM15.9334 6.47948C15.934 6.47871 15.9346 6.47793 15.9353 6.47713C15.9509 6.45821 15.9819 6.42766 16.0398 6.39456L15.9334 6.47948ZM5.03955 9.83338L6.67405 12.6363L16.0398 6.39453C16.0975 6.36157 16.1415 6.34932 16.1699 6.34476C16.1818 6.34283 16.192 6.34209 16.2006 6.34203L18.6769 10.5887L19.5408 10.085L18.6769 10.5888C19.9447 12.7628 19.0768 16.0265 16.0891 17.7339L16.0891 17.7339C13.0958 19.4447 9.77922 18.5568 8.50291 16.3682L4.77238 9.97083C4.77299 9.97007 4.77362 9.96929 4.77427 9.96851C4.78992 9.94958 4.82089 9.91902 4.87883 9.8859C4.93654 9.85292 4.98057 9.84067 5.00888 9.83611C5.02081 9.83418 5.03103 9.83345 5.03955 9.83338ZM10.3262 3.81204L10.3262 3.81215L10.3262 3.81204ZM13.7469 9.67814L14.6108 9.17439L13.7469 9.67813L13.7469 9.67814Z" stroke="#E27055" stroke-width="2"/>
    </g>
  </symbol>

  <symbol id="refferals-icon" width="24" height="24" viewBox="0 0 24 24">
    <mask id="path-1-inside-1_0_139" fill="white">
    <path fill-rule="evenodd" clip-rule="evenodd" d="M4.41382 17.859C4.77164 17.6504 5.23086 17.7713 5.43952 18.1291C6.26638 19.5471 7.53048 20.6193 9.08935 21.3151C9.4676 21.4839 9.63738 21.9274 9.46856 22.3057C9.29974 22.6839 8.85626 22.8537 8.47801 22.6849C6.6665 21.8764 5.14669 20.6046 4.14374 18.8847C3.93508 18.5269 4.056 18.0677 4.41382 17.859Z"/>
    </mask>
    <path d="M4.41382 17.859L3.40654 16.1312L3.40618 16.1314L4.41382 17.859ZM5.43952 18.1291L7.16724 17.1216L7.16719 17.1216L5.43952 18.1291ZM9.08935 21.3151L8.27417 23.1414L8.27429 23.1415L9.08935 21.3151ZM9.46856 22.3057L11.2949 23.1209L11.2949 23.1207L9.46856 22.3057ZM8.47801 22.6849L7.66288 24.5113L7.66295 24.5113L8.47801 22.6849ZM4.14374 18.8847L5.87144 17.8772L5.87141 17.8772L4.14374 18.8847ZM5.4211 19.5868C4.82491 19.9344 4.05966 19.7331 3.71184 19.1366L7.16719 17.1216C6.40206 15.8096 4.71836 15.3664 3.40654 16.1312L5.4211 19.5868ZM3.7118 19.1366C4.77339 20.9571 6.37839 22.2953 8.27417 23.1414L9.90453 19.4888C8.68257 18.9434 7.75936 18.1371 7.16724 17.1216L3.7118 19.1366ZM8.27429 23.1415C7.64367 22.8601 7.36094 22.1209 7.64217 21.4907L11.2949 23.1207C11.9138 21.734 11.2915 20.1077 9.9044 19.4887L8.27429 23.1415ZM7.64225 21.4905C7.92361 20.8602 8.66264 20.5772 9.29306 20.8585L7.66295 24.5113C9.04988 25.1302 10.6759 24.5076 11.2949 23.1209L7.64225 21.4905ZM9.29313 20.8585C7.81838 20.2003 6.63956 19.1944 5.87144 17.8772L2.41604 19.8922C3.65382 22.0148 5.51462 23.5525 7.66288 24.5113L9.29313 20.8585ZM5.87141 17.8772C6.21929 18.4737 6.01754 19.239 5.42146 19.5866L3.40618 16.1314C2.09446 16.8965 1.65086 18.5801 2.41606 19.8922L5.87141 17.8772Z" fill="#E27055" mask="url(#path-1-inside-1_0_139)"/>
    <mask id="path-3-inside-2_0_139" fill="white">
    <path fill-rule="evenodd" clip-rule="evenodd" d="M18.9059 3.92194C17.892 2.88646 16.446 2.50452 15.0304 2.9073C14.632 3.02066 14.2172 2.78959 14.1038 2.39119C13.9905 1.99279 14.2215 1.57792 14.6199 1.46456C16.5581 0.913074 18.5746 1.43959 19.9776 2.8725C20.2674 3.16846 20.2624 3.64331 19.9665 3.9331C19.6705 4.2229 19.1957 4.2179 18.9059 3.92194Z"/>
    </mask>
    <path d="M18.9059 3.92194L17.4768 5.32119L17.4769 5.32121L18.9059 3.92194ZM15.0304 2.9073L14.483 0.983653L14.483 0.983657L15.0304 2.9073ZM14.1038 2.39119L12.18 2.93827L12.1802 2.93872L14.1038 2.39119ZM14.6199 1.46456L14.0725 -0.459083L14.0725 -0.459082L14.6199 1.46456ZM19.9776 2.8725L18.5485 4.27172L18.5486 4.27177L19.9776 2.8725ZM19.9665 3.9331L21.3656 5.3622L21.3658 5.36199L19.9665 3.9331ZM20.3349 2.5227C18.8022 0.957421 16.5956 0.382554 14.483 0.983653L15.5777 4.83095C16.2963 4.62649 16.9817 4.8155 17.4768 5.32119L20.3349 2.5227ZM14.483 0.983657C15.1472 0.794669 15.8385 1.18003 16.0274 1.84366L12.1802 2.93872C12.5959 4.39916 14.1167 5.24665 15.5777 4.83095L14.483 0.983657ZM16.0275 1.84411C16.2162 2.50761 15.8315 3.19918 15.1672 3.38821L14.0725 -0.459082C12.6114 -0.0433352 11.7647 1.47797 12.18 2.93827L16.0275 1.84411ZM15.1672 3.38821C16.4087 3.03495 17.6645 3.36888 18.5485 4.27172L21.4066 1.47328C19.4846 -0.489692 16.7074 -1.2088 14.0725 -0.459083L15.1672 3.38821ZM18.5486 4.27177C18.0656 3.77852 18.0739 2.9872 18.5671 2.50421L21.3658 5.36199C22.4508 4.29942 22.4691 2.5584 21.4066 1.47324L18.5486 4.27177ZM18.5673 2.504C19.0605 2.02117 19.8518 2.02939 20.3349 2.52268L17.4769 5.32121C18.5395 6.40641 20.2805 6.42464 21.3656 5.3622L18.5673 2.504Z" fill="#E27055" mask="url(#path-3-inside-2_0_139)"/>
    <path fill-rule="evenodd" clip-rule="evenodd" d="M11.1901 3.3084C10.9761 2.94132 10.3523 2.71871 9.71858 3.08086C9.08722 3.44169 8.97618 4.07773 9.18651 4.43841L11.7122 8.76953C11.9208 9.12735 11.7999 9.58657 11.4421 9.79523C11.0843 10.0039 10.6251 9.88297 10.4164 9.52515L7.04885 3.75033C6.83479 3.38325 6.21098 3.16064 5.57731 3.52279C4.94595 3.88362 4.83491 4.51966 5.04525 4.88034L8.83373 11.377C9.04239 11.7348 8.92147 12.1941 8.56365 12.4027C8.20583 12.6114 7.74661 12.4905 7.53795 12.1326L5.85418 9.24523C5.64012 8.87815 5.01631 8.65554 4.38264 9.01769C3.75128 9.37852 3.64024 10.0145 3.85058 10.3752L7.63906 16.8719C9.248 19.631 13.2184 20.5264 16.5853 18.6021C19.95 16.6792 21.146 12.8377 19.5408 10.085L17.0152 5.75388C16.8011 5.3868 16.1773 5.16419 15.5436 5.52634C14.9123 5.88717 14.8012 6.52321 15.0116 6.8839L16.6953 9.77131C16.7961 9.94412 16.8237 10.15 16.7719 10.3432C16.7201 10.5365 16.5933 10.701 16.4196 10.8003C14.8771 11.6818 14.4044 13.3863 15.0797 14.5443C15.2884 14.9022 15.1675 15.3614 14.8096 15.57C14.4518 15.7787 13.9926 15.6578 13.7839 15.3C12.8712 13.7348 13.24 11.8501 14.4189 10.5181C14.7485 10.1457 14.8613 9.60397 14.6108 9.17439L11.1901 3.3084Z" fill="#E27055"/>
  </symbol>

  <symbol id="pedestal" width="199" height="121" viewBox="0 0 199 121">
    <g clip-path="url(#clip0_0_144)">
    <mask id="path-1-inside-1_0_144" fill="white">
    <path d="M142 16L132.904 2.744C131.868 1.2352 129.374 0 127.362 0H70.6383C68.6255 0 66.1315 1.2336 65.0959 2.744L56.5 16"/>
    </mask>
    <path d="M142 16L132.904 2.744C131.868 1.2352 129.374 0 127.362 0H70.6383C68.6255 0 66.1315 1.2336 65.0959 2.744L56.5 16" fill="#1E130F"/>
    <path d="M132.904 2.744L133.729 2.17822L133.729 2.17808L132.904 2.744ZM65.0959 2.744L64.2711 2.17849L64.2638 2.18911L64.2568 2.19993L65.0959 2.744ZM142.825 15.4342L133.729 2.17822L132.08 3.30978L141.175 16.5658L142.825 15.4342ZM133.729 2.17808C133.085 1.24013 132.046 0.456269 130.943 -0.0899605C129.834 -0.639079 128.555 -1 127.362 -1V1C128.181 1 129.155 1.25668 130.056 1.70236C130.962 2.15093 131.688 2.73907 132.08 3.30992L133.729 2.17808ZM127.362 -1H70.6383V1H127.362V-1ZM70.6383 -1C69.4447 -1 68.1662 -0.639604 67.0571 -0.0906317C65.9538 0.455441 64.915 1.23943 64.2711 2.17849L65.9206 3.30951C66.3124 2.73817 67.0384 2.15016 67.9443 1.70183C68.8442 1.2564 69.8191 1 70.6383 1V-1ZM64.2568 2.19993L55.661 15.4559L57.339 16.5441L65.9349 3.28807L64.2568 2.19993Z" fill="#E27055" mask="url(#path-1-inside-1_0_144)"/>
    <mask id="path-3-inside-2_0_144" fill="white">
    <path d="M198 56L179.981 40.1047C178.521 38.9783 175.573 38.0545 173.429 38.0503L142.898 38C141.866 38 140.876 38.2935 140.145 38.8162C139.414 39.3389 139.003 40.048 139 40.7881V54.7637"/>
    </mask>
    <path d="M198 56L179.981 40.1047C178.521 38.9783 175.573 38.0545 173.429 38.0503L142.898 38C141.866 38 140.876 38.2935 140.145 38.8162C139.414 39.3389 139.003 40.048 139 40.7881V54.7637" fill="#1E130F"/>
    <path d="M179.981 40.1047L180.642 39.3548L180.618 39.3331L180.592 39.313L179.981 40.1047ZM173.429 38.0503L173.431 37.0503L173.431 37.0503L173.429 38.0503ZM142.898 38L142.899 37H142.898L142.898 38ZM139 40.7881L138 40.7846V40.7881H139ZM198.662 55.2501L180.642 39.3548L179.319 40.8546L197.338 56.7499L198.662 55.2501ZM180.592 39.313C179.733 38.6506 178.509 38.0938 177.26 37.7025C176.004 37.3086 174.628 37.0527 173.431 37.0503L173.427 39.0503C174.373 39.0522 175.544 39.2602 176.662 39.6109C177.789 39.9641 178.769 40.4325 179.37 40.8964L180.592 39.313ZM173.431 37.0503L142.899 37L142.896 39L173.427 39.0503L173.431 37.0503ZM142.898 37C141.689 37 140.488 37.3413 139.563 38.0029L140.727 39.6295C141.263 39.2457 142.042 39 142.898 39L142.898 37ZM139.563 38.0029C138.634 38.6675 138.004 39.6527 138 40.7846L140 40.7916C140.001 40.4434 140.195 40.0103 140.727 39.6295L139.563 38.0029ZM138 40.7881V54.7637H140V40.7881H138Z" fill="#E27055" mask="url(#path-3-inside-2_0_144)"/>
    <mask id="path-5-inside-3_0_144" fill="white">
    <path d="M0 76L14.8781 58.2915C16.0723 57.0315 18.7916 56 20.9206 56H56.129C58.2581 56 60 57.2462 60 58.7692V74"/>
    </mask>
    <path d="M0 76L14.8781 58.2915C16.0723 57.0315 18.7916 56 20.9206 56H56.129C58.2581 56 60 57.2462 60 58.7692V74" fill="#1E130F"/>
    <path d="M14.8781 58.2915L14.1523 57.6036L14.1317 57.6254L14.1124 57.6483L14.8781 58.2915ZM0.765642 76.6433L15.6437 58.9348L14.1124 57.6483L-0.765642 75.3567L0.765642 76.6433ZM15.6039 58.9794C16.0581 58.5002 16.8833 57.9952 17.9034 57.6083C18.9109 57.2262 20.0019 57 20.9206 57V55C19.7104 55 18.3772 55.2896 17.1942 55.7383C16.0238 56.1821 14.8923 56.8228 14.1523 57.6036L15.6039 58.9794ZM20.9206 57H56.129V55H20.9206V57ZM56.129 57C57.007 57 57.7663 57.2585 58.2811 57.6268C58.799 57.9973 59 58.4163 59 58.7692H61C61 57.599 60.3301 56.6335 59.4447 56.0002C58.5562 55.3645 57.3801 55 56.129 55V57ZM59 58.7692V74H61V58.7692H59Z" fill="#E27055" mask="url(#path-5-inside-3_0_144)"/>
    <path d="M141.2 50.7998C141.2 53.5612 143.439 55.7998 146.2 55.7998H194.872C196.529 55.7998 197.872 57.143 197.872 58.7998V116.8C197.872 118.457 196.529 119.8 194.872 119.8H3.60645C1.94959 119.8 0.606445 118.457 0.606445 116.8V78.0498C0.606445 76.393 1.94959 75.0498 3.60644 75.0498H52.2783C55.0397 75.0498 57.2783 72.8112 57.2783 70.0498V17.5498C57.2783 15.893 58.6215 14.5498 60.2783 14.5498H138.2C139.857 14.5498 141.2 15.893 141.2 17.5498V50.7998Z" fill="#1E130F" stroke="#E27055" stroke-width="2"/>
    <path d="M94.0326 52V48.9753H100.359V31.9616L94 36.5301V32.8438L99.4457 29H103.88V48.9753H109V52H94.0326Z" fill="#E27055"/>
    <path d="M162.622 101V97.6743L169.646 90.4324C170.723 89.3135 171.511 88.3086 172.008 87.4176C172.526 86.5059 172.785 85.6045 172.785 84.7135C172.785 83.5532 172.464 82.6414 171.822 81.9784C171.2 81.3153 170.34 80.9838 169.242 80.9838C168.04 80.9838 167.087 81.336 166.382 82.0405C165.699 82.7243 165.357 83.6671 165.357 84.8689H162C162.041 83.4599 162.363 82.2477 162.964 81.2324C163.564 80.1964 164.404 79.3986 165.481 78.8392C166.559 78.2797 167.823 78 169.273 78C170.661 78 171.873 78.2694 172.909 78.8081C173.945 79.3468 174.743 80.1032 175.303 81.077C175.862 82.0509 176.142 83.2009 176.142 84.527C176.142 85.8739 175.79 87.1896 175.085 88.4743C174.401 89.759 173.272 91.1887 171.697 92.7635L166.569 97.9541H176.484V101H162.622Z" fill="#E27055"/>
    <path d="M30.0243 112C28.5946 112 27.3514 111.731 26.2946 111.192C25.2378 110.653 24.4194 109.897 23.8392 108.923C23.2797 107.928 23 106.778 23 105.473H26.3568C26.3568 106.613 26.6779 107.504 27.3203 108.146C27.9833 108.788 28.895 109.109 30.0554 109.109C31.2365 109.109 32.1482 108.778 32.7905 108.115C33.4329 107.452 33.7541 106.571 33.7541 105.473V103.795C33.7541 102.634 33.4329 101.743 32.7905 101.122C32.1482 100.479 31.2365 100.158 30.0554 100.158H27.6311V96.9878L32.9149 91.9527H23.9635V89H36.3338V92.1703L30.0865 98.0446V97.2365C32.2414 97.2365 33.9509 97.827 35.2149 99.0081C36.4788 100.189 37.1108 101.774 37.1108 103.764V105.473C37.1108 106.778 36.8207 107.928 36.2405 108.923C35.6604 109.897 34.8315 110.653 33.7541 111.192C32.6973 111.731 31.4541 112 30.0243 112Z" fill="#E27055"/>
    </g>
    <defs>
    <clipPath id="clip0_0_144">
    <rect width="199" height="121" fill="white"/>
    </clipPath>
    </defs>
  </symbol>
</svg>